<?xml version="1.0" standalone="no"?>
<!DOCTYPE svg PUBLIC "-//W3C//DTD SVG 1.1//EN" "http://www.w3.org/Graphics/SVG/1.1/DTD/svg11.dtd" >
<svg xmlns="http://www.w3.org/2000/svg" xmlns:xlink="http://www.w3.org/1999/xlink" version="1.1">
<metadata></metadata>
<defs>
<font id="dual100" horiz-adv-x="1167" >
<font-face units-per-em="2048" ascent="1595" descent="-453" />
<missing-glyph horiz-adv-x="577" />
<glyph unicode="AE" horiz-adv-x="2031" d="M12 0l1020 1454h881v-24h-856v-691h794v-24h-794v-690h856v-25h-881v475h-657l-332 -475h-31zM393 500h639v909z" />
<glyph unicode="ae" horiz-adv-x="1800" d="M78 268q0 126 113.5 207.5t277.5 81.5h367v131q0 136 -107.5 234t-259.5 98q-171 0 -295 -96l-18 18q130 102 313 102q156 0 269.5 -99.5t121.5 -242.5q43 158 149 250t267 92q136 0 235.5 -69.5t149.5 -183t55 -259.5h-856v-20q0 -106 27.5 -198t79 -161.5t131 -109 t178.5 -39.5q111 0 205.5 52.5t158.5 146.5l21 -17q-67 -95 -168.5 -150.5t-216.5 -55.5q-161 0 -267 90.5t-149 248.5v-30q0 -127 -115 -218t-276 -91q-164 0 -277.5 81.5t-113.5 206.5zM102 268q0 -115 106 -189.5t261 -74.5q152 0 259.5 83.5t107.5 201.5v243h-367 q-155 0 -261 -74.5t-106 -189.5zM860 557h830q-13 203 -120.5 333t-293.5 130q-185 0 -294 -129.5t-122 -333.5z" />
<glyph unicode="OE" horiz-adv-x="1861" d="M115 727q0 202 101 369.5t272 262.5t374 95h881v-24h-856v-691h794v-24h-794v-690h856v-25h-881q-203 0 -374 95t-272 262.5t-101 369.5zM139 727q0 -148 57 -278.5t154 -223t230.5 -146.5t281.5 -54v1405q-198 0 -364 -91.5t-262.5 -253t-96.5 -358.5z" />
<glyph unicode="oe" horiz-adv-x="2007" d="M102 512q0 147 60 268t171 192.5t251 71.5q178 0 303.5 -112t163.5 -289q30 180 142.5 290.5t287.5 110.5q138 0 239.5 -72t151 -191t49.5 -269v-12h-856q3 -139 50 -249.5t141.5 -178.5t224.5 -68q111 0 205.5 52.5t158.5 146.5l21 -17q-67 -95 -168.5 -150.5 t-216.5 -55.5q-173 0 -286.5 110.5t-143.5 288.5q-38 -176 -164 -287.5t-303 -111.5q-140 0 -251 71.5t-171 192.5t-60 268zM127 512q0 -140 57 -255.5t162 -184t238 -68.5t238 68.5t161.5 184t56.5 255.5t-56.5 255.5t-161.5 184t-238 68.5t-238 -68.5t-162 -184 t-57 -255.5zM1065 524h831q-3 139 -49.5 249.5t-141 178.5t-224.5 68t-224.5 -68t-141.5 -178.5t-50 -249.5z" />
<glyph unicode="&#xfb01;" horiz-adv-x="970" d="M33 999v25h192v254q0 117 81 197.5t198 80.5t197.5 -80.5t80.5 -197.5v-29h-24v29q0 104 -75 179t-179 75t-179 -75t-75 -179v-254h315v-25h-315v-999h-25v999h-192zM758 0v1024h24v-1024h-24z" />
<glyph unicode="&#xfb02;" horiz-adv-x="970" d="M33 999v25h192v233q0 117 81 198t198 81h278v-1536h-24v1511h-254q-104 0 -179 -75t-75 -179v-233h315v-25h-315v-999h-25v999h-192z" />
<glyph unicode="&#xfb03;" horiz-adv-x="1503" d="M33 999v25h192v254q0 117 81 197.5t198 80.5q71 0 135 -34q50 -29 76 -62l-19 -16q-30 35 -69 55q-56 33 -123 33q-104 0 -179 -75t-75 -179v-254h508v254q0 117 80.5 197.5t197.5 80.5t198 -80.5t81 -197.5v-29h-25v29q0 104 -75 179t-179 75t-179 -75t-75 -179v-254 h316v-25h-316v-999h-24v999h-508v-999h-25v999h-192zM1290 0v1024h25v-1024h-25z" />
<glyph unicode="&#xfb04;" horiz-adv-x="1503" d="M33 999v25h192v254q0 117 81 197.5t198 80.5q71 0 135 -34q50 -29 76 -62l-19 -16q-30 35 -69 55q-56 33 -123 33q-104 0 -179 -75t-75 -179v-254h508v233q0 117 80.5 198t197.5 81h279v-1536h-25v1511h-254q-104 0 -179 -75t-75 -179v-233h316v-25h-316v-999h-24v999 h-508v-999h-25v999h-192z" />
<glyph horiz-adv-x="0" />
<glyph horiz-adv-x="682" />
<glyph horiz-adv-x="0" />
<glyph horiz-adv-x="0" />
<glyph unicode="&#xd;" horiz-adv-x="577" />
<glyph unicode=" "  horiz-adv-x="577" />
<glyph unicode="&#x09;" horiz-adv-x="577" />
<glyph unicode="&#xa0;" horiz-adv-x="577" />
<glyph unicode="!" horiz-adv-x="376" d="M168 0v102h41v-102h-41zM176 1024v430h25v-430l-4 -717h-17z" />
<glyph unicode="&#x22;" horiz-adv-x="499" d="M147 1208v246h41v-246h-41zM311 1208v246h41v-246h-41z" />
<glyph unicode="#" horiz-adv-x="1687" d="M117 451l2 24h426l57 502h-428l2 24h428l51 453h25l-51 -453h483l51 453h25l-51 -453h432l-2 -24h-434l-56 -502h434l-2 -24h-436l-49 -451h-25l52 451h-486l-49 -451h-24l51 451h-426zM569 475h484l57 502h-485z" />
<glyph unicode="$" horiz-adv-x="1282" d="M98 371h25q0 -152 142.5 -257.5t363.5 -109.5v735q-223 30 -356.5 126t-133.5 241q0 151 138 258t352 111v122h24v-122q214 -4 352 -111t138 -258h-25q0 142 -132 241t-333 103v-690q241 -33 386 -135t145 -254q0 -163 -150 -275t-381 -116v-123h-24v123 q-232 4 -381.5 116t-149.5 275zM164 1106q0 -136 127 -223.5t338 -118.5v686q-203 -4 -334 -102.5t-131 -241.5zM653 4q221 4 363.5 109.5t142.5 257.5q0 144 -138 237t-368 127v-731z" />
<glyph unicode="%" horiz-adv-x="1529" d="M96 0l1303 1454h35l-1303 -1454h-35zM117 1208q0 101 72 173.5t173 72.5t173.5 -72.5t72.5 -173.5t-72.5 -173t-173.5 -72t-173 72t-72 173zM141 1208q0 -92 64.5 -156.5t156.5 -64.5t157 64.5t65 156.5t-65 157t-157 65t-156.5 -65t-64.5 -157zM922 246q0 101 72 173.5 t173 72.5t173.5 -72.5t72.5 -173.5t-72.5 -173.5t-173.5 -72.5t-173 72.5t-72 173.5zM946 246q0 -92 64.5 -156.5t156.5 -64.5t157 64.5t65 156.5t-65 156.5t-157 64.5t-156.5 -64.5t-64.5 -156.5z" />
<glyph unicode="&#x26;" horiz-adv-x="1325" d="M119 385q0 143 112 252v520q0 132 93 225t225 93t224.5 -93t92.5 -225q0 -66 -31 -122.5t-82 -96.5t-116 -79.5t-132.5 -72t-132.5 -74t-116 -85t-82 -106t-31 -136.5q0 -158 119 -269.5t287 -111.5q167 0 286 111.5t119 269.5v231h-282v25h307q109 0 185.5 76.5 t76.5 185.5h25q0 -119 -84 -203t-203 -84v-231q0 -167 -126 -286t-304 -119t-304 119t-126 286zM256 659q54 47 139 96t158 86t141 82t108 103.5t40 130.5q0 123 -85 208t-208 85t-208 -85t-85 -208v-498z" />
<glyph unicode="'" horiz-adv-x="325" d="M147 1208v25q11 0 15 29q2 8 2 28v62h-17v102h41v-164l-6 -41q-5 -21 -12 -31t-23 -10z" />
<glyph unicode="(" horiz-adv-x="481" d="M127 727q0 266 38.5 488t109.5 353.5t159 131.5v-21q-50 0 -101 -77.5t-91 -205t-65 -305t-25 -364.5t25 -364.5t65 -305t91 -205t101 -77.5v-21q-88 0 -159 131.5t-109.5 353.5t-38.5 488z" />
<glyph unicode=")" horiz-adv-x="481" d="M47 -225q50 0 101 77.5t91 205t65.5 305t25.5 364.5t-25.5 364.5t-65.5 305t-91 205t-101 77.5v21q88 0 159 -131.5t109.5 -353.5t38.5 -488t-38.5 -488t-109.5 -353.5t-159 -131.5v21z" />
<glyph unicode="*" horiz-adv-x="675" d="M152 1149l174 96l-174 96l10 17l170 -103l-4 199h20l-4 -199l170 103l10 -17l-174 -96l174 -96l-10 -16l-170 102l4 -199h-20l4 199l-170 -102z" />
<glyph unicode="+" horiz-adv-x="1069" d="M121 633v24h401v402h25v-402h401v-24h-401v-402h-25v402h-401z" />
<glyph unicode="," horiz-adv-x="352" d="M156 0v102h41v-163l-7 -41q-4 -15 -6.5 -22t-9.5 -13t-18 -6v24q10 0 14 29q2 8 2 29v61h-16z" />
<glyph unicode="-" horiz-adv-x="892" d="M156 590v24h581v-24h-581z" />
<glyph unicode="." horiz-adv-x="352" d="M156 0v102h41v-102h-41z" />
<glyph unicode="/" horiz-adv-x="784" d="M92 -82l574 1618h26l-573 -1618h-27z" />
<glyph unicode="0" horiz-adv-x="1421" d="M127 727q0 123 25 235t75 205.5t119.5 162t163 107t201.5 38.5q134 0 245 -59t184.5 -161t113.5 -238t40 -290q0 -207 -68 -375t-202.5 -270t-312.5 -102q-134 0 -245.5 59t-185 161t-113.5 237.5t-40 289.5zM152 727q0 -150 38.5 -282t109 -230t177 -154.5t234.5 -56.5 t234.5 56.5t177 154.5t109 230t38.5 282t-38.5 282t-109 230t-177 154.5t-234.5 56.5t-234.5 -56.5t-177 -154.5t-109 -230t-38.5 -282z" />
<glyph unicode="1" horiz-adv-x="491" d="M80 1243l211 211h24v-1454h-24v1421l-195 -194z" />
<glyph unicode="2" horiz-adv-x="1288" d="M106 0v25q0 69 19 130t56 112t82 94.5t107.5 85.5t120 76t131.5 76q15 8 23.5 12.5t21 12t23.5 13.5q32 18 85.5 48t81 46t70 41.5t65 43t52.5 42.5t45 47t30.5 49.5t21.5 58t6 64.5q0 156 -142 264.5t-356 108.5q-194 0 -330 -90.5t-161 -226.5l-25 4 q30 147 169.5 242.5t346.5 95.5q228 0 375 -115.5t147 -282.5q0 -49 -11.5 -90.5t-37.5 -77.5t-58.5 -67t-83 -64.5t-102.5 -63.5t-125 -71q-14 -7 -21.5 -11.5t-19.5 -11t-22 -12.5q-22 -13 -70 -39q-49 -28 -75.5 -42.5t-74.5 -44t-75.5 -49.5t-68.5 -52t-64.5 -58.5 t-52 -63t-43 -71t-25 -77t-10.5 -86.5h1020v-25h-1045z" />
<glyph unicode="3" horiz-adv-x="1308" d="M104 340l25 4q12 -146 152.5 -243t363.5 -97q235 0 376.5 106.5t141.5 264.5q0 155 -142 262.5t-376 107.5h-41v25h41q206 0 326.5 98t120.5 242q0 146 -120 243t-327 97q-194 0 -313 -88.5t-131 -222.5l-25 4q12 145 137.5 238.5t331.5 93.5q219 0 345 -103.5 t126 -261.5q0 -130 -86.5 -225t-243.5 -127q187 -32 294.5 -136t107.5 -247q0 -169 -147.5 -282t-395.5 -113q-235 0 -379 101t-162 259z" />
<glyph unicode="4" horiz-adv-x="1241" d="M59 479v25l869 950h24v-950h213v-25h-213v-479h-24v479h-869zM92 504h836v913z" />
<glyph unicode="5" horiz-adv-x="1275" d="M104 373l25 4q12 -161 151.5 -267t364.5 -106q235 0 376.5 115.5t141.5 286.5t-141.5 286t-376.5 115h-477l117 647h762v-24h-742l-108 -599h448q248 0 395.5 -121.5t147.5 -303.5q0 -183 -147.5 -304.5t-395.5 -121.5q-235 0 -382 112t-159 281z" />
<glyph unicode="6" horiz-adv-x="1286" d="M133 727q0 359 138 553.5t405 194.5q140 0 255 -59.5t181 -164.5l-20 -12q-62 99 -172 155t-244 56q-253 0 -385.5 -189.5t-132.5 -533.5q0 -185 28 -287q0 188 142 320.5t348 132.5q211 0 356.5 -128.5t145.5 -328.5t-145.5 -328t-356.5 -128q-267 0 -405 194t-138 553z M211 436q0 -179 135 -305.5t330 -126.5q131 0 239.5 54t173 153.5t64.5 224.5t-64.5 224.5t-173 153.5t-239.5 54q-195 0 -330 -126.5t-135 -305.5z" />
<glyph unicode="7" horiz-adv-x="1028" d="M59 1430v24h942v-24l-694 -1430h-26l694 1430h-916z" />
<glyph unicode="8" horiz-adv-x="1327" d="M121 375q0 143 105.5 247t293.5 136q-156 32 -241.5 126.5t-85.5 225.5q0 158 126 261.5t345 103.5t345 -103.5t126 -261.5q0 -130 -86.5 -225t-243.5 -127q187 -32 294 -136t107 -247q0 -169 -147 -282t-395 -113t-395.5 113t-147.5 282zM145 375q0 -158 142 -264.5 t377 -106.5t376.5 106.5t141.5 264.5t-141.5 264t-376.5 106q-236 0 -377.5 -106t-141.5 -264zM217 1110q0 -146 120 -243t327 -97t326.5 97t119.5 243t-119.5 243t-326.5 97t-327 -97t-120 -243z" />
<glyph unicode="9" horiz-adv-x="1286" d="M109 1018q0 133 67.5 238t181.5 162t252 57q267 0 405 -194.5t138 -553.5t-138 -553t-405 -194q-140 0 -255 59t-181 164l21 12q62 -99 171.5 -155t243.5 -56q253 0 385.5 189.5t132.5 533.5q0 185 -28 287q0 -188 -142 -320.5t-348 -132.5q-138 0 -252 57t-181.5 162 t-67.5 238zM133 1018q0 -125 64.5 -224.5t173 -153.5t239.5 -54q195 0 330 126.5t135 305.5t-135 305.5t-330 126.5q-131 0 -239.5 -54t-173 -153.5t-64.5 -224.5z" />
<glyph unicode=":" horiz-adv-x="352" d="M156 0v102h41v-102h-41zM156 758v102h41v-102h-41z" />
<glyph unicode=";" horiz-adv-x="352" d="M156 0v102h41v-163l-7 -41q-4 -15 -6.5 -22t-9.5 -13t-18 -6v24q10 0 14 29q2 8 2 29v61h-16zM156 758v102h41v-102h-41z" />
<glyph unicode="&#x3c;" horiz-adv-x="966" d="M90 625v28l723 398v-29l-698 -383l698 -383v-29z" />
<glyph unicode="=" horiz-adv-x="995" d="M166 440v25h663v-25h-663zM166 825v25h663v-25h-663z" />
<glyph unicode="&#x3e;" horiz-adv-x="966" d="M154 227v29l696 383l-696 383v29l723 -398v-28z" />
<glyph unicode="?" horiz-adv-x="1124" d="M80 1098q0 161 129 269t352 108t352 -108t129 -269q0 -62 -23.5 -119t-68 -105.5t-89.5 -85.5t-107 -77q-146 -96 -183 -128q-68 -60 -83 -136q-7 -33 -7 -78h-24q0 67 11 111t53 88t79 70.5t132 87.5q13 9 20 13q266 171 266 359q0 151 -123 251.5t-334 100.5 t-334 -100.5t-123 -251.5h-24zM449 0v102h40v-102h-40z" />
<glyph unicode="@" horiz-adv-x="1726" d="M121 727q0 151 59.5 289.5t160 239t238.5 160t289 59.5t289.5 -59.5t239 -160t160 -239t59.5 -289.5v-244q0 -72 -52 -124t-124 -52t-124 52t-52 124v101q-45 -123 -153.5 -200t-242.5 -77q-173 0 -296 123.5t-123 296.5t123 296.5t296 123.5t296.5 -123.5t123.5 -296.5 v-244q0 -63 44.5 -107t107.5 -44t107 44t44 107v244q0 197 -96.5 363.5t-263 263t-363.5 96.5t-363.5 -96.5t-263 -263t-96.5 -363.5t96.5 -363.5t263 -263t363.5 -96.5v-24q-151 0 -289 59.5t-238.5 160t-160 238.5t-59.5 289zM473 727q0 -164 115.5 -279.5t279.5 -115.5 t280 115.5t116 279.5t-116 279.5t-280 115.5t-279.5 -115.5t-115.5 -279.5z" />
<glyph unicode="A" horiz-adv-x="1400" d="M37 0l651 1454h25l651 -1454h-27l-213 475h-848l-213 -475h-26zM287 500h825l-412 921z" />
<glyph unicode="B" horiz-adv-x="1492" d="M225 0v1454h695q154 0 262 -108.5t108 -262.5q0 -120 -67.5 -214.5t-175.5 -133.5q140 -17 233.5 -120t93.5 -246q0 -154 -108 -261.5t-262 -107.5h-779zM250 25h754q142 0 244 101t102 243q0 141 -102.5 243.5t-243.5 102.5h-754v-690zM250 739h670q142 0 244 101 t102 243q0 141 -102.5 244t-243.5 103h-670v-691z" />
<glyph unicode="C" horiz-adv-x="1474" d="M115 727q0 151 59.5 289.5t160 239t238.5 160t289 59.5t285 -56.5t239 -158.5l-16 -17q-100 99 -230.5 153t-277.5 54q-197 0 -363.5 -96.5t-263 -263t-96.5 -363.5t96.5 -363.5t263 -263t363.5 -96.5q147 0 277.5 54t230.5 153l16 -16q-105 -102 -239 -158.5t-285 -56.5 t-289 59.5t-238.5 160t-160 238.5t-59.5 289z" />
<glyph unicode="D" horiz-adv-x="1550" d="M225 0v1454h482q197 0 364.5 -97.5t265 -265t97.5 -364.5t-97.5 -364.5t-265 -265t-364.5 -97.5h-482zM250 25h457q114 0 221 35.5t193.5 100.5t151.5 151.5t100.5 193.5t35.5 221q0 190 -94 352t-256 256.5t-352 94.5h-457v-1405z" />
<glyph unicode="E" horiz-adv-x="1306" d="M225 0v1454h963v-24h-938v-691h876v-24h-876v-690h938v-25h-963z" />
<glyph unicode="F" horiz-adv-x="1294" d="M225 0v1454h963v-24h-938v-691h876v-24h-876v-715h-25z" />
<glyph unicode="G" horiz-adv-x="1523" d="M115 727q0 151 59.5 289.5t160 239t238.5 160t289 59.5q260 0 469 -166l-16 -19q-200 160 -453 160q-197 0 -363.5 -96.5t-263 -263t-96.5 -363.5t96.5 -363.5t263 -263t363.5 -96.5q141 0 267.5 51t226.5 144v497h-666v25h690v-721h-24v166q-99 -89 -227 -137.5 t-267 -48.5q-151 0 -289 59.5t-238.5 160t-160 238.5t-59.5 289z" />
<glyph unicode="H" horiz-adv-x="1589" d="M225 0v1454h25v-715h1089v715h25v-1454h-25v715h-1089v-715h-25z" />
<glyph unicode="I" horiz-adv-x="475" d="M225 0v1454h25v-1454h-25z" />
<glyph unicode="J" horiz-adv-x="972" d="M47 156l21 14q51 -77 130.5 -121.5t174.5 -44.5q152 0 258 106.5t106 258.5v1085h25v-1085q0 -161 -114 -275t-275 -114q-102 0 -186 47t-140 129z" />
<glyph unicode="K" horiz-adv-x="1327" d="M225 0v1454h25v-983l1003 983h35l-612 -600l612 -854h-31l-600 838l-407 -402v-436h-25z" />
<glyph unicode="L" horiz-adv-x="1241" d="M225 0v1454h25v-1429h958v-25h-983z" />
<glyph unicode="M" horiz-adv-x="1855" d="M225 0v1454h25l678 -1429l678 1429h24v-1454h-24v1397l-664 -1397h-29l-663 1397v-1397h-25z" />
<glyph unicode="N" horiz-adv-x="1589" d="M225 0v1454h25l1089 -1413v1413h25v-1454h-25l-1089 1413v-1413h-25z" />
<glyph unicode="O" horiz-adv-x="1724" d="M115 727q0 151 59.5 289.5t160 239t238.5 160t289 59.5t289.5 -59.5t239 -160t160 -239t59.5 -289.5t-59.5 -289t-160 -238.5t-239 -160t-289.5 -59.5t-289 59.5t-238.5 160t-160 238.5t-59.5 289zM139 727q0 -197 96.5 -363.5t263 -263t363.5 -96.5t363.5 96.5t263 263 t96.5 363.5t-96.5 363.5t-263 263t-363.5 96.5t-363.5 -96.5t-263 -263t-96.5 -363.5z" />
<glyph unicode="P" horiz-adv-x="1368" d="M225 0v1454h613q187 0 319.5 -132.5t132.5 -320.5t-132 -319t-320 -131h-588v-551h-25zM250 575h588q177 0 302.5 124.5t125.5 301.5t-125.5 303t-302.5 126h-588v-855z" />
<glyph unicode="Q" horiz-adv-x="1724" d="M115 727q0 151 59.5 289.5t160 239t238.5 160t289 59.5t289.5 -59.5t239 -160t160 -239t59.5 -289.5q0 -299 -211 -520l190 -189l-18 -18l-191 188q-101 -99 -234.5 -153.5t-283.5 -54.5q-151 0 -289 59.5t-238.5 160t-160 238.5t-59.5 289zM139 727q0 -197 96.5 -363.5 t263 -263t363.5 -96.5q144 0 272.5 53.5t229.5 149.5l-184 184l18 19l184 -185q96 101 149.5 229.5t53.5 272.5q0 197 -96.5 363.5t-263 263t-363.5 96.5t-363.5 -96.5t-263 -263t-96.5 -363.5z" />
<glyph unicode="R" horiz-adv-x="1411" d="M225 0v1454h613q187 0 319.5 -132.5t132.5 -320.5q0 -176 -117 -303.5t-290 -144.5l387 -553h-31l-385 551h-604v-551h-25zM250 575h588q177 0 302.5 124.5t125.5 301.5t-125.5 303t-302.5 126h-588v-855z" />
<glyph unicode="S" horiz-adv-x="1296" d="M104 371h25q0 -154 147 -260.5t371 -106.5t371 106.5t147 260.5q0 147 -142 241t-376 125q-229 30 -365.5 125.5t-136.5 243.5q0 156 141 262.5t361 106.5t361 -106.5t141 -262.5h-25q0 145 -134.5 244.5t-342.5 99.5t-342.5 -99.5t-134.5 -244.5q0 -137 130.5 -225 t346.5 -119q248 -33 395.5 -134t147.5 -257q0 -164 -153.5 -277.5t-389.5 -113.5t-389.5 113.5t-153.5 277.5z" />
<glyph unicode="T" horiz-adv-x="1241" d="M27 1430v24h1187v-24h-581v-1430h-25v1430h-581z" />
<glyph unicode="U" horiz-adv-x="1544" d="M203 549v905h24v-905q0 -148 73 -273.5t198.5 -198.5t273.5 -73t273.5 73t198.5 198.5t73 273.5v905h24v-905q0 -154 -76.5 -285t-207.5 -207.5t-285 -76.5t-285 76.5t-207.5 207.5t-76.5 285z" />
<glyph unicode="V" horiz-adv-x="1404" d="M39 1454h27l636 -1423l637 1423h27l-651 -1454h-25z" />
<glyph unicode="W" horiz-adv-x="1884" d="M57 1454h27l426 -1413l418 1413h28l418 -1413l426 1413h27l-438 -1454h-29l-418 1411l-418 -1411h-28z" />
<glyph unicode="X" horiz-adv-x="1249" d="M43 0l565 727l-565 727h31l551 -709l551 709h30l-567 -727l567 -727h-30l-551 707l-551 -707h-31z" />
<glyph unicode="Y" horiz-adv-x="1372" d="M43 1454h31l612 -815l612 815h31l-631 -840v-614h-24v614z" />
<glyph unicode="Z" horiz-adv-x="1265" d="M59 0v25l1108 1405h-1087v24h1118v-24l-1108 -1405h1108v-25h-1139z" />
<glyph unicode="[" horiz-adv-x="487" d="M168 -246v1946h287v-25h-262v-1896h262v-25h-287z" />
<glyph unicode="\" horiz-adv-x="784" d="M92 1536h27l573 -1618h-26z" />
<glyph unicode="]" horiz-adv-x="487" d="M33 -221h262v1896h-262v25h286v-1946h-286v25z" />
<glyph unicode="^" horiz-adv-x="950" d="M133 872l328 582h28l328 -582h-29l-313 555l-313 -555h-29z" />
<glyph unicode="_" horiz-adv-x="995" d="M84 -20h827v-25h-827v25z" />
<glyph unicode="`" horiz-adv-x="741" d="M205 1378l12 23l320 -184l-13 -23z" />
<glyph unicode="a" horiz-adv-x="1028" d="M80 289q0 127 115 218t276 91h367v90q0 136 -107.5 234t-259.5 98q-171 0 -295 -96l-18 18q130 102 313 102q161 0 276 -104t115 -252v-688h-24v182q-42 -91 -141 -146.5t-226 -55.5q-161 0 -276 91t-115 218zM104 289q0 -118 107.5 -201.5t259.5 -83.5t259.5 83.5 t107.5 201.5v284h-367q-152 0 -259.5 -83t-107.5 -201z" />
<glyph unicode="b" d="M180 0v1536h25v-870q29 157 150.5 267.5t267.5 110.5q120 0 222 -71t161 -193.5t59 -267.5t-59 -267.5t-161 -193.5t-222 -71q-146 0 -267.5 110t-150.5 266v-356h-25zM205 512q0 -138 56 -255t152 -185t210 -68t210 68t151.5 185t55.5 255t-55.5 255t-151.5 185t-210 68 t-210 -68t-152 -185t-56 -255z" />
<glyph unicode="c" horiz-adv-x="1017" d="M102 512q0 147 60 268t171 192.5t251 71.5q108 0 198.5 -43t155.5 -120l-18 -17q-61 74 -147.5 115t-188.5 41q-133 0 -238 -68.5t-162 -184t-57 -255.5t57 -255.5t162 -184t238 -68.5q102 0 188.5 41t147.5 115l18 -17q-65 -77 -155.5 -120t-198.5 -43q-140 0 -251 71.5 t-171 192.5t-60 268z" />
<glyph unicode="d" d="M102 512q0 145 59.5 267.5t161.5 193.5t222 71q146 0 267.5 -110.5t150.5 -267.5v870h24v-1536h-24v356q-29 -156 -150.5 -266t-267.5 -110q-120 0 -222 71t-161.5 193.5t-59.5 267.5zM127 512q0 -138 56 -255t152 -185t210 -68t210 68t152 185t56 255t-56 255t-152 185 t-210 68t-210 -68t-152 -185t-56 -255z" />
<glyph unicode="e" horiz-adv-x="1073" d="M106 512q0 150 50 269t151.5 191t239.5 72t239.5 -72t151 -191t49.5 -269v-12h-856q3 -139 50 -249.5t141.5 -178.5t224.5 -68q111 0 205.5 52.5t158.5 146.5l21 -17q-67 -95 -168.5 -150.5t-216.5 -55.5q-138 0 -239.5 72t-151.5 191t-50 269zM131 524h832 q-3 139 -50 249.5t-141.5 178.5t-224.5 68t-224.5 -68t-141.5 -178.5t-50 -249.5z" />
<glyph unicode="f" horiz-adv-x="569" d="M33 999v25h192v254q0 117 81 197.5t198 80.5q128 0 211 -96l-19 -16q-75 88 -192 88q-104 0 -179 -75t-75 -179v-254h315v-25h-315v-999h-25v999h-192z" />
<glyph unicode="g" d="M102 512q0 145 59.5 267.5t161.5 193.5t222 71q144 0 264 -110t154 -268v358h24v-1014q0 -226 -114 -338t-312 -112q-164 0 -282 47q-54 21 -97 49l13 20q145 -92 366 -92q86 0 156.5 23.5t126.5 73t87.5 133.5t31.5 196v346q-32 -156 -153 -266t-265 -110 q-120 0 -222 71t-161.5 193.5t-59.5 267.5zM127 512q0 -138 56 -255t152 -185t210 -68t210 68t152 185t56 255t-56 255t-152 185t-210 68t-210 -68t-152 -185t-56 -255z" />
<glyph unicode="h" horiz-adv-x="1099" d="M180 0v1536h25v-754q25 106 128.5 184t223.5 78q155 0 266 -110.5t111 -265.5v-668h-25v668q0 146 -103 249t-249 103t-249 -103t-103 -249v-668h-25z" />
<glyph unicode="i" horiz-adv-x="401" d="M188 0v1024h25v-1024h-25zM188 1249v205h25v-205h-25z" />
<glyph unicode="j" horiz-adv-x="401" d="M-66 -416q104 0 179 75t75 179v1186h25v-1186q0 -117 -81 -197.5t-198 -80.5v24zM188 1249v205h25v-205h-25z" />
<glyph unicode="k" horiz-adv-x="1001" d="M180 0v1536h25v-1221l729 709h35l-455 -442l455 -582h-33l-440 565l-291 -284v-281h-25z" />
<glyph unicode="l" horiz-adv-x="401" d="M188 0v1536h25v-1536h-25z" />
<glyph unicode="m" horiz-adv-x="1828" d="M180 0v1024h25v-242q25 106 128.5 184t223.5 78q129 0 238.5 -90t126.5 -211q17 122 125.5 211.5t238.5 89.5q155 0 266 -110.5t111 -265.5v-668h-25v668q0 146 -103 249t-249 103q-142 0 -247 -103.5t-105 -248.5v-668h-25v668q0 146 -103 249t-249 103 q-142 0 -247 -103.5t-105 -248.5v-668h-25z" />
<glyph unicode="n" horiz-adv-x="1099" d="M180 0v1024h25v-242q25 106 128.5 184t223.5 78q155 0 266 -110.5t111 -265.5v-668h-25v668q0 146 -103 249t-249 103q-142 0 -247 -103.5t-105 -248.5v-668h-25z" />
<glyph unicode="o" d="M102 512q0 147 60 268t171 192.5t251 71.5t251 -71.5t170.5 -192.5t59.5 -268t-59.5 -268t-170.5 -192.5t-251 -71.5t-251 71.5t-171 192.5t-60 268zM127 512q0 -140 57 -255.5t162 -184t238 -68.5t238 68.5t161.5 184t56.5 255.5t-56.5 255.5t-161.5 184t-238 68.5 t-238 -68.5t-162 -184t-57 -255.5z" />
<glyph unicode="p" d="M180 -430v1454h25v-358q29 157 150.5 267.5t267.5 110.5q120 0 222 -71t161 -193.5t59 -267.5t-59 -267.5t-161 -193.5t-222 -71q-146 0 -267.5 110t-150.5 266v-786h-25zM205 512q0 -138 56 -255t152 -185t210 -68t210 68t151.5 185t55.5 255t-55.5 255t-151.5 185 t-210 68t-210 -68t-152 -185t-56 -255z" />
<glyph unicode="q" d="M102 512q0 145 59.5 267.5t161.5 193.5t222 71q144 0 264 -110t154 -268v358h24v-1454h-24v786q-32 -156 -153 -266t-265 -110q-120 0 -222 71t-161.5 193.5t-59.5 267.5zM127 512q0 -138 56 -255t152 -185t210 -68t210 68t152 185t56 255t-56 255t-152 185t-210 68 t-210 -68t-152 -185t-56 -255z" />
<glyph unicode="r" horiz-adv-x="632" d="M180 0v1024h25v-287q30 128 146 217.5t267 89.5v-24q-178 0 -295.5 -120.5t-117.5 -293.5v-606h-25z" />
<glyph unicode="s" horiz-adv-x="980" d="M94 260h25q0 -105 108.5 -180.5t261.5 -75.5q159 0 265 69t106 187q0 47 -20 85t-52.5 64.5t-81.5 48t-100.5 34.5t-116.5 24q-82 13 -144 32t-114.5 49.5t-80 76.5t-27.5 106q0 120 104.5 192t261.5 72q152 0 259.5 -77t107.5 -187h-25q0 100 -100.5 170t-241.5 70 q-147 0 -244.5 -63.5t-97.5 -176.5q0 -46 19.5 -82.5t49.5 -60.5t77.5 -43.5t91.5 -30.5t104 -22q91 -15 158.5 -35.5t123.5 -53t85 -81t29 -111.5q0 -127 -113.5 -203.5t-282.5 -76.5q-164 0 -279.5 81.5t-115.5 198.5z" />
<glyph unicode="t" horiz-adv-x="507" d="M14 1020v24h213v404l25 6v-410h233v-24h-233v-762q0 -97 68 -165t165 -68v-25q-106 0 -182 76t-76 182v762h-213z" />
<glyph unicode="u" horiz-adv-x="1097" d="M164 356v668h24v-668q0 -146 103.5 -249t249.5 -103q142 0 247 103.5t105 248.5v668h25v-1024h-25v242q-25 -105 -129.5 -183.5t-222.5 -78.5q-155 0 -266 110.5t-111 265.5z" />
<glyph unicode="v" horiz-adv-x="995" d="M55 1024h27l416 -993l417 993h27l-430 -1024h-27z" />
<glyph unicode="w" horiz-adv-x="1384" d="M63 1024h27l293 -981l295 981h27l292 -981l295 981h27l-307 -1024h-27l-295 979l-293 -979h-26z" />
<glyph unicode="x" horiz-adv-x="878" d="M55 0l369 512l-369 512h31l352 -492l355 492h30l-368 -512l368 -512h-30l-355 489l-352 -489h-31z" />
<glyph unicode="y" horiz-adv-x="995" d="M55 1024h27l416 -993l417 993h27l-555 -1321q-39 -86 -119 -117q-32 -13 -75 -16v24q32 3 67 15q72 26 105 104l120 287z" />
<glyph unicode="z" horiz-adv-x="874" d="M51 0v25l723 974h-682v25h713v-25l-723 -974h723v-25h-754z" />
<glyph unicode="{" horiz-adv-x="542" d="M59 715v24h21q60 0 101.5 42t41.5 102v612q0 86 59.5 145.5t145.5 59.5h82v-25h-82q-75 0 -127.5 -52.5t-52.5 -127.5v-612q0 -53 -28.5 -95t-76.5 -61q48 -21 76.5 -62t28.5 -94v-612q0 -75 52.5 -127.5t127.5 -52.5h82v-25h-82q-86 0 -145.5 59.5t-59.5 145.5v612 q0 60 -41.5 102t-101.5 42h-21z" />
<glyph unicode="|" horiz-adv-x="360" d="M168 -328v2069h25v-2069h-25z" />
<glyph unicode="}" horiz-adv-x="542" d="M33 -221h82q75 0 127.5 52.5t52.5 127.5v612q0 53 28 94t76 62q-48 19 -76 60.5t-28 95.5v612q0 75 -52.5 127.5t-127.5 52.5h-82v25h82q86 0 145 -59.5t59 -145.5v-612q0 -60 42 -102t102 -42h20v-24h-20q-60 0 -102 -42t-42 -102v-612q0 -86 -59 -145.5t-145 -59.5h-82 v25z" />
<glyph unicode="~" horiz-adv-x="1075" d="M176 889l37 37q44 44 87.5 65.5t77.5 22.5t69 -13t58 -32t48 -43q60 -60 116 -73t99 7.5t90 67.5l37 37l18 -19l-36 -37q-44 -44 -87.5 -65.5t-77.5 -22.5t-69 13t-58 32t-48 43q-60 60 -116.5 73t-99.5 -7.5t-90 -67.5l-36 -37z" />
<glyph unicode="&#xa1;" horiz-adv-x="376" d="M168 1352v102h41v-102h-41zM176 0v430l4 717h17l4 -717v-430h-25z" />
<glyph unicode="&#xa2;" horiz-adv-x="1083" d="M123 512q0 219 127 369.5t330 162.5v123h24v-123q108 0 198.5 -43t155.5 -120l-18 -17q-61 74 -147.5 115t-188.5 41v-1016q102 0 188.5 41t147.5 115l18 -17q-65 -77 -155.5 -120t-198.5 -43v-123h-24v123q-203 12 -330 162.5t-127 369.5zM147 512q0 -135 53.5 -248.5 t153 -184t226.5 -75.5v1016q-193 -12 -313 -156t-120 -352z" />
<glyph unicode="&#xa3;" horiz-adv-x="1095" d="M111 0v25q58 72 112 157q113 197 113 346q0 45 -17 115h-188v25h182q-11 42 -38.5 117t-44.5 138t-17 121q0 181 117 306t293 125q98 0 184 -41.5t147 -114.5l-18 -19q-50 64 -134.5 107t-178.5 43q-162 0 -273.5 -117.5t-111.5 -288.5q0 -58 17.5 -120.5t45 -136.5 t39.5 -119h455v-25h-449q14 -68 14 -115q0 -157 -108 -346q-40 -67 -109 -157h828v-25h-860z" />
<glyph unicode="&#xa5;" horiz-adv-x="1413" d="M63 1454h31l613 -815l612 815h31l-617 -819h305v-25h-319v-254h319v-24h-319v-332h-25v332h-319v24h319v254h-319v25h303z" />
<glyph unicode="&#xa6;" horiz-adv-x="389" d="M182 -328v840h25v-840h-25zM182 901v840h25v-840h-25z" />
<glyph unicode="&#xa7;" horiz-adv-x="1060" d="M131 260h25q0 -105 108.5 -180.5t261.5 -75.5q159 0 265 69t106 187q0 47 -20 85t-52.5 64.5t-81.5 48t-100.5 34.5t-116.5 24q-82 13 -144 32t-114.5 49.5t-80 76.5t-27.5 106q0 148 155 224q-155 66 -155 206q0 120 104.5 192.5t261.5 72.5q152 0 259.5 -77.5 t107.5 -187.5h-25q0 100 -100.5 170t-241.5 70q-147 0 -244.5 -63.5t-97.5 -176.5q0 -46 19.5 -82.5t49.5 -60.5t77.5 -43.5t91.5 -30.5t104 -22q91 -15 158.5 -35.5t123.5 -53t85 -81t29 -111.5q0 -72 -38 -129.5t-106 -93.5q144 -70 144 -207q0 -127 -113.5 -203.5 t-282.5 -76.5q-164 0 -279.5 81.5t-115.5 198.5zM184 780q0 -46 19.5 -82.5t49.5 -60.5t77.5 -43.5t91.5 -30.5t104 -22q137 -22 226 -60q145 71 145 209q0 47 -20 85t-52.5 64.5t-81.5 48t-100.5 34.5t-116.5 24q-100 15 -180 43q-75 -30 -118.5 -84t-43.5 -125z" />
<glyph unicode="&#xa8;" horiz-adv-x="716" d="M205 1155v102h33v-102h-33zM479 1155v102h33v-102h-33z" />
<glyph unicode="&#xa9;" horiz-adv-x="1241" d="M137 727q0 132 64.5 243t176 175.5t243.5 64.5q201 0 342 -141t141 -342t-141 -342t-342 -141q-132 0 -243.5 64.5t-176 175.5t-64.5 243zM162 727q0 -125 61.5 -230.5t167 -167t230.5 -61.5q190 0 324 134t134 325t-134 325t-324 134q-125 0 -230.5 -61.5t-167 -167 t-61.5 -230.5zM322 727q0 125 87 212t212 87q124 0 210 -86l-18 -16q-77 77 -192 77q-116 0 -195.5 -79.5t-79.5 -194.5t79.5 -194.5t195.5 -79.5q115 0 192 77l18 -16q-86 -86 -210 -86q-125 0 -212 87t-87 212z" />
<glyph unicode="&#xab;" horiz-adv-x="983" d="M100 520l414 414l18 -19l-395 -395l395 -395l-18 -19zM424 520l414 414l18 -19l-395 -395l395 -395l-18 -19z" />
<glyph unicode="&#xac;" horiz-adv-x="1208" d="M174 662v24h868v-450h-24v426h-844z" />
<glyph unicode="&#xad;" horiz-adv-x="892" d="M156 590v24h581v-24h-581z" />
<glyph unicode="&#xae;" horiz-adv-x="1241" d="M137 727q0 132 64.5 243t176 175.5t243.5 64.5q201 0 342 -141t141 -342t-141 -342t-342 -141q-132 0 -243.5 64.5t-176 175.5t-64.5 243zM162 727q0 -125 61.5 -230.5t167 -167t230.5 -61.5q190 0 324 134t134 325t-134 325t-324 134q-125 0 -230.5 -61.5t-167 -167 t-61.5 -230.5zM436 438v578h242q69 0 118.5 -49.5t49.5 -118.5t-49.5 -118.5t-118.5 -49.5h-6l149 -242h-28l-150 242h-182v-242h-25zM461 705h217q60 0 101.5 41.5t41.5 101.5t-41.5 101.5t-101.5 41.5h-217v-286z" />
<glyph unicode="&#xaf;" horiz-adv-x="593" d="M123 1229v28h348v-28h-348z" />
<glyph unicode="&#xb0;" horiz-adv-x="655" d="M113 1260q0 90 62.5 152.5t152.5 62.5q89 0 152 -63t63 -152q0 -90 -62.5 -153t-152.5 -63q-91 0 -153 62.5t-62 153.5zM137 1260q0 -78 56.5 -134.5t134.5 -56.5t134 56.5t56 134.5t-56 134t-134 56t-134.5 -56t-56.5 -134z" />
<glyph unicode="&#xb1;" horiz-adv-x="1069" d="M203 231v25h663v-25h-663zM203 797v24h319v320h25v-320h319v-24h-319v-320h-25v320h-319z" />
<glyph unicode="&#xb2;" horiz-adv-x="712" d="M145 840v24q0 23 3 42.5t13.5 38.5t17 31.5t26.5 30.5t29 26.5t38 27.5t39 25t45 28q11 6 34.5 20t31 18.5l25 15t23 15.5t17.5 14.5t15 16t10 16.5t8.5 20t3.5 22t2 26q0 60 -49 101t-121 41t-121 -41t-49 -101h-24q0 69 57 117.5t137 48.5t137.5 -48.5t57.5 -117.5 q0 -24 -2 -41.5t-11 -33.5t-15.5 -25.5t-27.5 -25t-34 -23.5t-48 -29t-57 -35q-34 -21 -48.5 -30t-42 -28t-40 -33.5t-28 -35.5t-21.5 -44t-6 -50h381v-24h-406z" />
<glyph unicode="&#xb3;" horiz-adv-x="663" d="M137 993h25q0 -60 49 -99.5t121 -39.5t121 39.5t49 99.5t-49 101t-121 41h-13v24h13q72 0 121 39.5t49 99.5t-49 101t-121 41t-121 -41t-49 -101h-25q0 69 57.5 117.5t137.5 48.5t137 -48.5t57 -117.5q0 -53 -32.5 -92.5t-87.5 -58.5q55 -19 87.5 -60t32.5 -94 q0 -69 -57 -116.5t-137 -47.5t-137.5 47.5t-57.5 116.5z" />
<glyph unicode="&#xb4;" horiz-adv-x="741" d="M205 1217l319 184l13 -23l-320 -184z" />
<glyph unicode="&#xb5;" horiz-adv-x="1081" d="M164 -430v1454h24v-668q0 -145 105.5 -248.5t247.5 -103.5q146 0 249 103t103 249v668h25v-1024h-25v242q-25 -105 -129.5 -183.5t-222.5 -78.5q-120 0 -224 78.5t-129 183.5v-672h-24z" />
<glyph unicode="&#xb6;" horiz-adv-x="1122" d="M80 1001q0 188 132.5 320.5t319.5 132.5h412v-1454h-24v1430h-164v-1430h-25v551h-199q-188 0 -320 131t-132 319zM104 1001q0 -177 125.5 -301.5t302.5 -124.5h199v855h-199q-177 0 -302.5 -126t-125.5 -303z" />
<glyph unicode="&#xb7;" horiz-adv-x="352" d="M156 676v102h41v-102h-41z" />
<glyph unicode="&#xb8;" horiz-adv-x="1126" d="M489 -10h25v-90h141v-62q0 -69 -48.5 -117.5t-117.5 -48.5v25q60 0 101 40.5t41 100.5v37h-142v115z" />
<glyph unicode="&#xb9;" horiz-adv-x="391" d="M104 1360l95 94h24v-614h-24v581l-78 -78z" />
<glyph unicode="&#xba;" horiz-adv-x="745" d="M119 1147q0 144 73 230.5t181 86.5t181 -86.5t73 -230.5t-73 -231t-181 -87t-181 87t-73 231zM143 1147q0 -133 65.5 -213t164.5 -80t164 79.5t65 213.5t-65 213.5t-164 79.5t-164.5 -80t-65.5 -213z" />
<glyph unicode="&#xbb;" horiz-adv-x="980" d="M125 125l395 395l-395 395l18 19l414 -414l-414 -414zM449 125l395 395l-395 395l18 19l414 -414l-414 -414z" />
<glyph unicode="&#xbc;" horiz-adv-x="1640" d="M72 8l1458 1456l18 -18l-1458 -1456zM240 1360l94 94h24v-614h-24v581l-78 -78zM1016 178v25l344 411h24v-411h107v-25h-107v-178h-24v178h-344zM1049 203h311v372z" />
<glyph unicode="&#xbd;" horiz-adv-x="1640" d="M72 8l1458 1456l18 -18l-1458 -1456zM240 1360l94 94h24v-614h-24v581l-78 -78zM1059 0v25q0 43 11.5 75.5t47.5 65.5t56 46.5t84 53.5q8 5 12 8q10 6 28 16q88 51 110 76q32 35 32 93q0 60 -49 100.5t-121 40.5t-121 -40.5t-49 -100.5h-25q0 69 57.5 117.5t137.5 48.5 t137 -48.5t57 -117.5q0 -21 -2.5 -37.5t-6 -29t-14 -25t-18 -21t-27 -21.5t-32.5 -21.5t-43 -26.5t-51 -31q-31 -19 -42 -25.5t-37 -24t-36.5 -27.5t-28 -28.5t-24.5 -34t-13 -37t-6 -44.5h381v-25h-405z" />
<glyph unicode="&#xbe;" horiz-adv-x="1642" d="M86 8l1458 1456l19 -18l-1459 -1456zM166 993h24q0 -60 49 -99.5t121 -39.5t121 39.5t49 99.5t-49 101t-121 41h-12v24h12q72 0 121 39.5t49 99.5t-49 101t-121 41t-121 -41t-49 -101h-24q0 69 57 117.5t137 48.5t137.5 -48.5t57.5 -117.5q0 -53 -33 -92.5t-88 -58.5 q55 -19 88 -60t33 -94q0 -69 -57.5 -116.5t-137.5 -47.5t-137 47.5t-57 116.5zM1030 178v25l344 411h25v-411h106v-25h-106v-178h-25v178h-344zM1063 203h311v372z" />
<glyph unicode="&#xbf;" horiz-adv-x="1124" d="M82 377q0 62 23.5 119t68.5 106t90 85t107 77q145 96 183 128q67 60 82 136q7 33 7 78h25q0 -68 -11.5 -112t-53.5 -88t-80 -71.5t-133 -88.5q-4 -3 -6 -4t-5 -3l-6 -4q-267 -172 -267 -358q0 -151 123 -251.5t334 -100.5t334 100.5t123 251.5h24q0 -161 -129 -269 t-352 -108t-352 108t-129 269zM635 1372v103h41v-103h-41z" />
<glyph unicode="&#xc0;" horiz-adv-x="1400" d="M37 0l651 1454h25l651 -1454h-27l-213 475h-848l-213 -475h-26zM287 500h825l-412 921zM535 1808l12 23l319 -184l-12 -23z" />
<glyph unicode="&#xc1;" horiz-adv-x="1400" d="M37 0l651 1454h25l651 -1454h-27l-213 475h-848l-213 -475h-26zM287 500h825l-412 921zM535 1647l319 184l12 -23l-319 -184z" />
<glyph unicode="&#xc2;" horiz-adv-x="1400" d="M37 0l651 1454h25l651 -1454h-27l-213 475h-848l-213 -475h-26zM287 500h825l-412 921zM449 1640l251 191l252 -191l-14 -18l-238 178l-237 -178z" />
<glyph unicode="&#xc3;" horiz-adv-x="1400" d="M37 0l651 1454h25l651 -1454h-27l-213 475h-848l-213 -475h-26zM287 500h825l-412 921zM496 1683l36 37q54 54 90 53.5t91 -55.5q43 -43 69 -42.5t70 44.5l37 37l18 -18l-37 -37q-54 -54 -89 -54t-89 54q-44 44 -70.5 44t-70.5 -44l-37 -37z" />
<glyph unicode="&#xc4;" horiz-adv-x="1400" d="M37 0l651 1454h25l651 -1454h-27l-213 475h-848l-213 -475h-26zM287 500h825l-412 921zM547 1624v102h33v-102h-33zM821 1624v102h33v-102h-33z" />
<glyph unicode="&#xc5;" horiz-adv-x="1400" d="M37 0l651 1454h25l651 -1454h-27l-213 475h-848l-213 -475h-26zM287 500h825l-412 921zM537 1700q0 68 48 116t115 48q68 0 116 -48t48 -116t-48 -116t-116 -48q-67 0 -115 48t-48 116zM561 1700q0 -60 39.5 -99.5t99.5 -39.5t100 39.5t40 99.5t-40 99.5t-100 39.5 t-99.5 -39.5t-39.5 -99.5z" />
<glyph unicode="&#xc7;" horiz-adv-x="1474" d="M115 727q0 151 59.5 289.5t160 239t238.5 160t289 59.5t285 -56.5t239 -158.5l-16 -17q-100 99 -230.5 153t-277.5 54q-197 0 -363.5 -96.5t-263 -263t-96.5 -363.5t96.5 -363.5t263 -263t363.5 -96.5q147 0 277.5 54t230.5 153l16 -16q-101 -99 -232.5 -155t-279.5 -60 v-80h142v-62q0 -69 -48.5 -117.5t-117.5 -48.5v25q60 0 100.5 40.5t40.5 100.5v37h-141v105q-150 2 -286 62t-234.5 159.5t-156.5 237t-58 288.5z" />
<glyph unicode="&#xc8;" horiz-adv-x="1306" d="M225 0v1454h963v-24h-938v-691h876v-24h-876v-690h938v-25h-963zM541 1808l12 23l319 -184l-12 -23z" />
<glyph unicode="&#xc9;" horiz-adv-x="1306" d="M225 0v1454h963v-24h-938v-691h876v-24h-876v-690h938v-25h-963zM541 1647l319 184l12 -23l-319 -184z" />
<glyph unicode="&#xca;" horiz-adv-x="1306" d="M225 0v1454h963v-24h-938v-691h876v-24h-876v-690h938v-25h-963zM455 1640l252 191l251 -191l-14 -18l-237 178l-238 -178z" />
<glyph unicode="&#xcb;" horiz-adv-x="1306" d="M225 0v1454h963v-24h-938v-691h876v-24h-876v-690h938v-25h-963zM553 1624v102h33v-102h-33zM827 1624v102h33v-102h-33z" />
<glyph unicode="&#xcc;" horiz-adv-x="475" d="M72 1808l12 23l319 -184l-12 -23zM225 0v1454h25v-1454h-25z" />
<glyph unicode="&#xcd;" horiz-adv-x="475" d="M72 1647l319 184l12 -23l-319 -184zM225 0v1454h25v-1454h-25z" />
<glyph unicode="&#xce;" horiz-adv-x="475" d="M-14 1640l252 191l251 -191l-14 -18l-237 178l-238 -178zM225 0v1454h25v-1454h-25z" />
<glyph unicode="&#xcf;" horiz-adv-x="475" d="M84 1624v102h33v-102h-33zM225 0v1454h25v-1454h-25zM358 1624v102h33v-102h-33z" />
<glyph unicode="&#xd0;" horiz-adv-x="1591" d="M0 715v24h266v715h482q197 0 364.5 -97.5t265 -265t97.5 -364.5t-97.5 -364.5t-265 -265t-364.5 -97.5h-482v715h-266zM291 25h457q114 0 221 35.5t193.5 100.5t151.5 151.5t100.5 193.5t35.5 221q0 190 -94 352t-256 256.5t-352 94.5h-457v-691h282v-24h-282v-690z" />
<glyph unicode="&#xd1;" horiz-adv-x="1589" d="M225 0v1454h25l1089 -1413v1413h25v-1454h-25l-1089 1413v-1413h-25zM567 1628l37 37q54 54 89.5 53.5t90.5 -55.5q43 -43 69.5 -42.5t70.5 44.5l37 37l18 -19l-37 -36q-54 -54 -89 -54t-89 54q-44 44 -70.5 44t-70.5 -44l-37 -37z" />
<glyph unicode="&#xd2;" horiz-adv-x="1724" d="M115 727q0 151 59.5 289.5t160 239t238.5 160t289 59.5t289.5 -59.5t239 -160t160 -239t59.5 -289.5t-59.5 -289t-160 -238.5t-239 -160t-289.5 -59.5t-289 59.5t-238.5 160t-160 238.5t-59.5 289zM139 727q0 -197 96.5 -363.5t263 -263t363.5 -96.5t363.5 96.5t263 263 t96.5 363.5t-96.5 363.5t-263 263t-363.5 96.5t-363.5 -96.5t-263 -263t-96.5 -363.5zM696 1808l13 23l319 -184l-12 -23z" />
<glyph unicode="&#xd3;" horiz-adv-x="1724" d="M115 727q0 151 59.5 289.5t160 239t238.5 160t289 59.5t289.5 -59.5t239 -160t160 -239t59.5 -289.5t-59.5 -289t-160 -238.5t-239 -160t-289.5 -59.5t-289 59.5t-238.5 160t-160 238.5t-59.5 289zM139 727q0 -197 96.5 -363.5t263 -263t363.5 -96.5t363.5 96.5t263 263 t96.5 363.5t-96.5 363.5t-263 263t-363.5 96.5t-363.5 -96.5t-263 -263t-96.5 -363.5zM696 1647l320 184l12 -23l-319 -184z" />
<glyph unicode="&#xd4;" horiz-adv-x="1724" d="M115 727q0 151 59.5 289.5t160 239t238.5 160t289 59.5t289.5 -59.5t239 -160t160 -239t59.5 -289.5t-59.5 -289t-160 -238.5t-239 -160t-289.5 -59.5t-289 59.5t-238.5 160t-160 238.5t-59.5 289zM139 727q0 -197 96.5 -363.5t263 -263t363.5 -96.5t363.5 96.5t263 263 t96.5 363.5t-96.5 363.5t-263 263t-363.5 96.5t-363.5 -96.5t-263 -263t-96.5 -363.5zM610 1640l252 191l252 -191l-14 -18l-238 178l-237 -178z" />
<glyph unicode="&#xd5;" horiz-adv-x="1724" d="M115 727q0 151 59.5 289.5t160 239t238.5 160t289 59.5t289.5 -59.5t239 -160t160 -239t59.5 -289.5t-59.5 -289t-160 -238.5t-239 -160t-289.5 -59.5t-289 59.5t-238.5 160t-160 238.5t-59.5 289zM139 727q0 -197 96.5 -363.5t263 -263t363.5 -96.5t363.5 96.5t263 263 t96.5 363.5t-96.5 363.5t-263 263t-363.5 96.5t-363.5 -96.5t-263 -263t-96.5 -363.5zM657 1683l37 37q54 54 89.5 53.5t90.5 -55.5q43 -43 69.5 -42.5t70.5 44.5l37 37l18 -18l-37 -37q-54 -54 -89 -54t-89 54q-44 44 -70.5 44t-70.5 -44l-37 -37z" />
<glyph unicode="&#xd6;" horiz-adv-x="1724" d="M115 727q0 151 59.5 289.5t160 239t238.5 160t289 59.5t289.5 -59.5t239 -160t160 -239t59.5 -289.5t-59.5 -289t-160 -238.5t-239 -160t-289.5 -59.5t-289 59.5t-238.5 160t-160 238.5t-59.5 289zM139 727q0 -197 96.5 -363.5t263 -263t363.5 -96.5t363.5 96.5t263 263 t96.5 363.5t-96.5 363.5t-263 263t-363.5 96.5t-363.5 -96.5t-263 -263t-96.5 -363.5zM709 1624v102h32v-102h-32zM983 1624v102h33v-102h-33z" />
<glyph unicode="&#xd7;" horiz-adv-x="929" d="M164 362l282 283l-282 283l18 18l283 -282l283 282l18 -18l-283 -283l283 -283l-18 -18l-283 283l-283 -283z" />
<glyph unicode="&#xd8;" horiz-adv-x="1724" d="M115 727q0 151 59.5 289.5t160 239t238.5 160t289 59.5q123 0 238 -39l37 100h26l-39 -111q217 -83 351.5 -272t134.5 -426q0 -151 -59.5 -289t-160 -238.5t-239 -160t-289.5 -59.5q-121 0 -237 38l-35 -100h-27l39 109q-218 79 -352.5 270t-134.5 430zM139 727 q0 -232 130.5 -416t340.5 -262l482 1362q-110 39 -230 39q-197 0 -363.5 -96.5t-263 -263t-96.5 -363.5zM633 41q107 -37 229 -37q197 0 363.5 96.5t263 263t96.5 363.5q0 229 -130.5 412.5t-338.5 263.5z" />
<glyph unicode="&#xd9;" horiz-adv-x="1544" d="M203 549v905h24v-905q0 -148 73 -273.5t198.5 -198.5t273.5 -73t273.5 73t198.5 198.5t73 273.5v905h24v-905q0 -154 -76.5 -285t-207.5 -207.5t-285 -76.5t-285 76.5t-207.5 207.5t-76.5 285zM606 1808l12 23l320 -184l-12 -23z" />
<glyph unicode="&#xda;" horiz-adv-x="1544" d="M203 549v905h24v-905q0 -148 73 -273.5t198.5 -198.5t273.5 -73t273.5 73t198.5 198.5t73 273.5v905h24v-905q0 -154 -76.5 -285t-207.5 -207.5t-285 -76.5t-285 76.5t-207.5 207.5t-76.5 285zM606 1647l320 184l12 -23l-320 -184z" />
<glyph unicode="&#xdb;" horiz-adv-x="1544" d="M203 549v905h24v-905q0 -148 73 -273.5t198.5 -198.5t273.5 -73t273.5 73t198.5 198.5t73 273.5v905h24v-905q0 -154 -76.5 -285t-207.5 -207.5t-285 -76.5t-285 76.5t-207.5 207.5t-76.5 285zM520 1640l252 191l252 -191l-14 -18l-238 178l-237 -178z" />
<glyph unicode="&#xdc;" horiz-adv-x="1544" d="M203 549v905h24v-905q0 -148 73 -273.5t198.5 -198.5t273.5 -73t273.5 73t198.5 198.5t73 273.5v905h24v-905q0 -154 -76.5 -285t-207.5 -207.5t-285 -76.5t-285 76.5t-207.5 207.5t-76.5 285zM618 1624v102h33v-102h-33zM893 1624v102h33v-102h-33z" />
<glyph unicode="&#xdd;" horiz-adv-x="1372" d="M43 1454h31l612 -815l612 815h31l-631 -840v-614h-24v614zM520 1647l320 184l12 -23l-320 -184z" />
<glyph unicode="&#xde;" horiz-adv-x="1368" d="M225 0v1454h25v-260h588q187 0 319.5 -132.5t132.5 -320.5t-132 -319t-320 -131h-588v-291h-25zM250 315h588q177 0 302.5 124.5t125.5 301.5t-125.5 302.5t-302.5 125.5h-588v-854z" />
<glyph unicode="&#xdf;" horiz-adv-x="1427" d="M180 0v1083q0 154 108.5 262.5t262.5 108.5h323q154 0 262.5 -108.5t108.5 -262.5q0 -119 -68 -214t-176 -134q140 -17 234 -120t94 -246q0 -154 -108.5 -261.5t-262.5 -107.5h-143q-154 0 -262.5 108.5t-108.5 262.5h25q0 -141 102.5 -243.5t243.5 -102.5h143 q142 0 244.5 101t102.5 243q0 141 -103 243.5t-244 102.5h-84v24q142 0 244.5 101t102.5 243q0 141 -103 244t-244 103h-323q-141 0 -243.5 -103t-102.5 -244v-1083h-25z" />
<glyph unicode="&#xe0;" horiz-adv-x="1028" d="M80 289q0 127 115 218t276 91h367v90q0 136 -107.5 234t-259.5 98q-171 0 -295 -96l-18 18q130 102 313 102q161 0 276 -104t115 -252v-688h-24v182q-42 -91 -141 -146.5t-226 -55.5q-161 0 -276 91t-115 218zM104 289q0 -118 107.5 -201.5t259.5 -83.5t259.5 83.5 t107.5 201.5v284h-367q-152 0 -259.5 -83t-107.5 -201zM354 1378l13 23l319 -184l-12 -23z" />
<glyph unicode="&#xe1;" horiz-adv-x="1028" d="M80 289q0 127 115 218t276 91h367v90q0 136 -107.5 234t-259.5 98q-171 0 -295 -96l-18 18q130 102 313 102q161 0 276 -104t115 -252v-688h-24v182q-42 -91 -141 -146.5t-226 -55.5q-161 0 -276 91t-115 218zM104 289q0 -118 107.5 -201.5t259.5 -83.5t259.5 83.5 t107.5 201.5v284h-367q-152 0 -259.5 -83t-107.5 -201zM326 1217l319 184l12 -23l-319 -184z" />
<glyph unicode="&#xe2;" horiz-adv-x="1028" d="M80 289q0 127 115 218t276 91h367v90q0 136 -107.5 234t-259.5 98q-171 0 -295 -96l-18 18q130 102 313 102q161 0 276 -104t115 -252v-688h-24v182q-42 -91 -141 -146.5t-226 -55.5q-161 0 -276 91t-115 218zM104 289q0 -118 107.5 -201.5t259.5 -83.5t259.5 83.5 t107.5 201.5v284h-367q-152 0 -259.5 -83t-107.5 -201zM254 1210l252 191l252 -191l-15 -18l-237 178l-238 -178z" />
<glyph unicode="&#xe3;" horiz-adv-x="1028" d="M80 289q0 127 115 218t276 91h367v90q0 136 -107.5 234t-259.5 98q-171 0 -295 -96l-18 18q130 102 313 102q161 0 276 -104t115 -252v-688h-24v182q-42 -91 -141 -146.5t-226 -55.5q-161 0 -276 91t-115 218zM104 289q0 -118 107.5 -201.5t259.5 -83.5t259.5 83.5 t107.5 201.5v284h-367q-152 0 -259.5 -83t-107.5 -201zM266 1239l37 37q54 54 89.5 53.5t90.5 -55.5q43 -43 69.5 -42.5t70.5 44.5l36 37l19 -19l-37 -37q-54 -54 -89 -54t-89 54q-44 44 -70.5 44t-70.5 -44l-37 -36z" />
<glyph unicode="&#xe4;" horiz-adv-x="1028" d="M80 289q0 127 115 218t276 91h367v90q0 136 -107.5 234t-259.5 98q-171 0 -295 -96l-18 18q130 102 313 102q161 0 276 -104t115 -252v-688h-24v182q-42 -91 -141 -146.5t-226 -55.5q-161 0 -276 91t-115 218zM104 289q0 -118 107.5 -201.5t259.5 -83.5t259.5 83.5 t107.5 201.5v284h-367q-152 0 -259.5 -83t-107.5 -201zM352 1155v102h33v-102h-33zM627 1155v102h32v-102h-32z" />
<glyph unicode="&#xe5;" horiz-adv-x="1028" d="M80 289q0 127 115 218t276 91h367v90q0 136 -107.5 234t-259.5 98q-171 0 -295 -96l-18 18q130 102 313 102q161 0 276 -104t115 -252v-688h-24v182q-42 -91 -141 -146.5t-226 -55.5q-161 0 -276 91t-115 218zM104 289q0 -118 107.5 -201.5t259.5 -83.5t259.5 83.5 t107.5 201.5v284h-367q-152 0 -259.5 -83t-107.5 -201zM342 1298q0 68 48 116t116 48t116 -48t48 -116q0 -67 -48 -115t-116 -48t-116 48t-48 115zM367 1298q0 -60 39.5 -99.5t99.5 -39.5t99.5 39.5t39.5 99.5t-39.5 100t-99.5 40t-99.5 -40t-39.5 -100z" />
<glyph unicode="&#xe7;" horiz-adv-x="1017" d="M102 512q0 147 60 268t171 192.5t251 71.5q108 0 198.5 -43t155.5 -120l-18 -17q-61 74 -147.5 115t-188.5 41q-133 0 -238 -68.5t-162 -184t-57 -255.5t57 -255.5t162 -184t238 -68.5q102 0 188.5 41t147.5 115l18 -17q-129 -154 -342 -163v-80h141v-62 q0 -69 -48.5 -117.5t-117.5 -48.5v25q60 0 101 40.5t41 100.5v37h-142v105q-137 3 -245 75.5t-166 192.5t-58 264z" />
<glyph unicode="&#xe8;" horiz-adv-x="1071" d="M104 512q0 150 50 269t151.5 191t239.5 72t239.5 -72t151 -191t49.5 -269v-12h-856q3 -139 50 -249.5t141.5 -178.5t224.5 -68q111 0 205.5 52.5t158.5 146.5l21 -17q-67 -95 -168.5 -150.5t-216.5 -55.5q-138 0 -239.5 72t-151.5 191t-50 269zM129 524h832 q-3 139 -50 249.5t-141.5 178.5t-224.5 68t-224.5 -68t-141.5 -178.5t-50 -249.5zM393 1378l13 23l319 -184l-12 -23z" />
<glyph unicode="&#xe9;" horiz-adv-x="1071" d="M104 512q0 150 50 269t151.5 191t239.5 72t239.5 -72t151 -191t49.5 -269v-12h-856q3 -139 50 -249.5t141.5 -178.5t224.5 -68q111 0 205.5 52.5t158.5 146.5l21 -17q-67 -95 -168.5 -150.5t-216.5 -55.5q-138 0 -239.5 72t-151.5 191t-50 269zM129 524h832 q-3 139 -50 249.5t-141.5 178.5t-224.5 68t-224.5 -68t-141.5 -178.5t-50 -249.5zM379 1217l319 184l13 -23l-320 -184z" />
<glyph unicode="&#xea;" horiz-adv-x="1071" d="M104 512q0 150 50 269t151.5 191t239.5 72t239.5 -72t151 -191t49.5 -269v-12h-856q3 -139 50 -249.5t141.5 -178.5t224.5 -68q111 0 205.5 52.5t158.5 146.5l21 -17q-67 -95 -168.5 -150.5t-216.5 -55.5q-138 0 -239.5 72t-151.5 191t-50 269zM129 524h832 q-3 139 -50 249.5t-141.5 178.5t-224.5 68t-224.5 -68t-141.5 -178.5t-50 -249.5zM293 1210l252 191l252 -191l-15 -18l-237 178l-238 -178z" />
<glyph unicode="&#xeb;" horiz-adv-x="1071" d="M104 512q0 150 50 269t151.5 191t239.5 72t239.5 -72t151 -191t49.5 -269v-12h-856q3 -139 50 -249.5t141.5 -178.5t224.5 -68q111 0 205.5 52.5t158.5 146.5l21 -17q-67 -95 -168.5 -150.5t-216.5 -55.5q-138 0 -239.5 72t-151.5 191t-50 269zM129 524h832 q-3 139 -50 249.5t-141.5 178.5t-224.5 68t-224.5 -68t-141.5 -178.5t-50 -249.5zM391 1155v102h33v-102h-33zM666 1155v102h32v-102h-32z" />
<glyph unicode="&#xec;" horiz-adv-x="401" d="M49 1378l12 23l320 -184l-12 -23zM188 0v1024h25v-1024h-25z" />
<glyph unicode="&#xed;" horiz-adv-x="401" d="M20 1217l320 184l12 -23l-319 -184zM188 0v1024h25v-1024h-25z" />
<glyph unicode="&#xee;" horiz-adv-x="401" d="M-51 1210l252 191l252 -191l-15 -18l-237 178l-238 -178zM188 0v1024h25v-1024h-25z" />
<glyph unicode="&#xef;" horiz-adv-x="401" d="M47 1155v102h33v-102h-33zM188 0v1024h25v-1024h-25zM322 1155v102h32v-102h-32z" />
<glyph unicode="&#xf1;" horiz-adv-x="1099" d="M180 0v1024h25v-242q25 106 128.5 184t223.5 78q155 0 266 -110.5t111 -265.5v-668h-25v668q0 146 -103 249t-249 103q-142 0 -247 -103.5t-105 -248.5v-668h-25zM371 1198l37 37q54 54 89.5 53.5t90.5 -55.5q43 -43 69 -42.5t70 44.5l37 37l18 -19l-37 -36 q-54 -54 -89 -54t-89 54q-44 44 -70.5 44t-70.5 -44l-37 -37z" />
<glyph unicode="&#xf2;" d="M102 512q0 147 60 268t171 192.5t251 71.5t251 -71.5t170.5 -192.5t59.5 -268t-59.5 -268t-170.5 -192.5t-251 -71.5t-251 71.5t-171 192.5t-60 268zM127 512q0 -140 57 -255.5t162 -184t238 -68.5t238 68.5t161.5 184t56.5 255.5t-56.5 255.5t-161.5 184t-238 68.5 t-238 -68.5t-162 -184t-57 -255.5zM432 1378l12 23l320 -184l-12 -23z" />
<glyph unicode="&#xf3;" d="M102 512q0 147 60 268t171 192.5t251 71.5t251 -71.5t170.5 -192.5t59.5 -268t-59.5 -268t-170.5 -192.5t-251 -71.5t-251 71.5t-171 192.5t-60 268zM127 512q0 -140 57 -255.5t162 -184t238 -68.5t238 68.5t161.5 184t56.5 255.5t-56.5 255.5t-161.5 184t-238 68.5 t-238 -68.5t-162 -184t-57 -255.5zM403 1217l320 184l12 -23l-319 -184z" />
<glyph unicode="&#xf4;" d="M102 512q0 147 60 268t171 192.5t251 71.5t251 -71.5t170.5 -192.5t59.5 -268t-59.5 -268t-170.5 -192.5t-251 -71.5t-251 71.5t-171 192.5t-60 268zM127 512q0 -140 57 -255.5t162 -184t238 -68.5t238 68.5t161.5 184t56.5 255.5t-56.5 255.5t-161.5 184t-238 68.5 t-238 -68.5t-162 -184t-57 -255.5zM332 1210l252 191l252 -191l-15 -18l-237 178l-238 -178z" />
<glyph unicode="&#xf5;" d="M102 512q0 147 60 268t171 192.5t251 71.5t251 -71.5t170.5 -192.5t59.5 -268t-59.5 -268t-170.5 -192.5t-251 -71.5t-251 71.5t-171 192.5t-60 268zM127 512q0 -140 57 -255.5t162 -184t238 -68.5t238 68.5t161.5 184t56.5 255.5t-56.5 255.5t-161.5 184t-238 68.5 t-238 -68.5t-162 -184t-57 -255.5zM379 1239l37 37q54 54 89.5 53.5t90.5 -55.5q43 -43 69 -42.5t70 44.5l37 37l19 -19l-37 -37q-54 -54 -89.5 -54t-89.5 54q-44 44 -70.5 44t-70.5 -44l-37 -36z" />
<glyph unicode="&#xf6;" d="M102 512q0 147 60 268t171 192.5t251 71.5t251 -71.5t170.5 -192.5t59.5 -268t-59.5 -268t-170.5 -192.5t-251 -71.5t-251 71.5t-171 192.5t-60 268zM127 512q0 -140 57 -255.5t162 -184t238 -68.5t238 68.5t161.5 184t56.5 255.5t-56.5 255.5t-161.5 184t-238 68.5 t-238 -68.5t-162 -184t-57 -255.5zM430 1155v102h33v-102h-33zM705 1155v102h32v-102h-32z" />
<glyph unicode="&#xf7;" horiz-adv-x="1118" d="M166 633v24h786v-24h-786zM539 317v103h41v-103h-41zM539 870v103h41v-103h-41z" />
<glyph unicode="&#xf8;" d="M102 512q0 147 60 268t171 192.5t251 71.5q79 0 161 -28l11 28h26l-14 -36q137 -60 217 -193t80 -303q0 -147 -59.5 -268t-170.5 -192.5t-251 -71.5q-86 0 -168 28l-10 -28h-27l14 38q-135 61 -213 194t-78 300zM127 512q0 -160 73.5 -287t200.5 -184l336 952 q-77 27 -153 27q-133 0 -238 -68.5t-162 -184t-57 -255.5zM424 33q82 -29 160 -29q133 0 238 68.5t161.5 184t56.5 255.5q0 159 -76 285.5t-204 185.5z" />
<glyph unicode="&#xf9;" horiz-adv-x="1097" d="M164 356v668h24v-668q0 -146 103.5 -249t249.5 -103q142 0 247 103.5t105 248.5v668h25v-1024h-25v242q-25 -105 -129.5 -183.5t-222.5 -78.5q-155 0 -266 110.5t-111 265.5zM389 1378l12 23l320 -184l-12 -23z" />
<glyph unicode="&#xfa;" horiz-adv-x="1097" d="M164 356v668h24v-668q0 -146 103.5 -249t249.5 -103q142 0 247 103.5t105 248.5v668h25v-1024h-25v242q-25 -105 -129.5 -183.5t-222.5 -78.5q-155 0 -266 110.5t-111 265.5zM360 1217l320 184l12 -23l-319 -184z" />
<glyph unicode="&#xfb;" horiz-adv-x="1097" d="M164 356v668h24v-668q0 -146 103.5 -249t249.5 -103q142 0 247 103.5t105 248.5v668h25v-1024h-25v242q-25 -105 -129.5 -183.5t-222.5 -78.5q-155 0 -266 110.5t-111 265.5zM289 1210l252 191l252 -191l-15 -18l-237 178l-238 -178z" />
<glyph unicode="&#xfc;" horiz-adv-x="1097" d="M164 356v668h24v-668q0 -146 103.5 -249t249.5 -103q142 0 247 103.5t105 248.5v668h25v-1024h-25v242q-25 -105 -129.5 -183.5t-222.5 -78.5q-155 0 -266 110.5t-111 265.5zM387 1155v102h33v-102h-33zM662 1155v102h32v-102h-32z" />
<glyph unicode="&#xfd;" horiz-adv-x="995" d="M55 1024h27l416 -993l417 993h27l-555 -1321q-39 -86 -119 -117q-32 -13 -75 -16v24q32 3 67 15q72 26 105 104l120 287zM319 1217l320 184l12 -23l-319 -184z" />
<glyph unicode="&#xfe;" d="M180 -430v1884h25v-788q29 157 150.5 267.5t267.5 110.5q120 0 222 -71t161 -193.5t59 -267.5t-59 -267.5t-161 -193.5t-222 -71q-146 0 -267.5 110t-150.5 266v-786h-25zM205 512q0 -138 56 -255t152 -185t210 -68t210 68t151.5 185t55.5 255t-55.5 255t-151.5 185 t-210 68t-210 -68t-152 -185t-56 -255z" />
<glyph unicode="&#xff;" horiz-adv-x="995" d="M55 1024h27l416 -993l417 993h27l-555 -1321q-39 -86 -119 -117q-32 -13 -75 -16v24q32 3 67 15q72 26 105 104l120 287zM346 1155v102h33v-102h-33zM621 1155v102h32v-102h-32z" />
<glyph unicode="&#x178;" horiz-adv-x="1372" d="M43 1454h31l612 -815l612 815h31l-631 -840v-614h-24v614zM532 1624v102h33v-102h-33zM807 1624v102h33v-102h-33z" />
<glyph unicode="&#x2c6;" horiz-adv-x="913" d="M205 1210l252 191l252 -191l-15 -18l-237 178l-238 -178z" />
<glyph unicode="&#x2dc;" horiz-adv-x="821" d="M205 1198l37 37q54 54 89.5 53.5t90.5 -55.5q43 -43 69 -42.5t70 44.5l37 37l18 -19l-36 -36q-54 -54 -89.5 -54t-89.5 54q-44 44 -70.5 44t-70.5 -44l-37 -37z" />
<glyph unicode="&#x2000;" horiz-adv-x="932" />
<glyph unicode="&#x2001;" horiz-adv-x="1864" />
<glyph unicode="&#x2002;" horiz-adv-x="932" />
<glyph unicode="&#x2003;" horiz-adv-x="1864" />
<glyph unicode="&#x2004;" horiz-adv-x="621" />
<glyph unicode="&#x2005;" horiz-adv-x="466" />
<glyph unicode="&#x2006;" horiz-adv-x="310" />
<glyph unicode="&#x2007;" horiz-adv-x="310" />
<glyph unicode="&#x2008;" horiz-adv-x="233" />
<glyph unicode="&#x2009;" horiz-adv-x="372" />
<glyph unicode="&#x200a;" horiz-adv-x="103" />
<glyph unicode="&#x2010;" horiz-adv-x="892" d="M156 590v24h581v-24h-581z" />
<glyph unicode="&#x2011;" horiz-adv-x="892" d="M156 590v24h581v-24h-581z" />
<glyph unicode="&#x2012;" horiz-adv-x="892" d="M156 590v24h581v-24h-581z" />
<glyph unicode="&#x2013;" horiz-adv-x="1052" d="M154 580v24h745v-24h-745z" />
<glyph unicode="&#x2014;" horiz-adv-x="1667" d="M154 580v24h1359v-24h-1359z" />
<glyph unicode="&#x2018;" horiz-adv-x="335" d="M145 1208v164q-3 18 5 41q5 21 12.5 31t23.5 10v-24q-10 0 -14 -29q-2 -8 -2 -29v-61h16v-103h-41z" />
<glyph unicode="&#x2019;" horiz-adv-x="325" d="M147 1208v25q11 0 15 29q2 8 2 28v62h-17v102h41v-164l-6 -41q-5 -21 -12 -31t-23 -10z" />
<glyph unicode="&#x201a;" horiz-adv-x="344" d="M147 0v25q11 0 15 28q2 8 2 29v61h-17v103h41v-164l-6 -41q-5 -21 -12 -31t-23 -10z" />
<glyph unicode="&#x201c;" horiz-adv-x="499" d="M145 1208v164q-3 18 5 41q5 21 12.5 31t23.5 10v-24q-10 0 -14 -29q-2 -8 -2 -29v-61h16v-103h-41zM309 1208v164q-3 20 4 41q11 41 37 41v-24q-10 0 -14 -29q-2 -8 -2 -29v-61h16v-103h-41z" />
<glyph unicode="&#x201d;" horiz-adv-x="489" d="M147 1208v25q11 0 15 29q2 8 2 28v62h-17v102h41v-164l-6 -41q-5 -21 -12 -31t-23 -10zM311 1208v25q11 0 15 29q2 8 2 28v62h-17v102h41v-164l-6 -41q-5 -21 -12 -31t-23 -10z" />
<glyph unicode="&#x201e;" horiz-adv-x="507" d="M147 0v25q11 0 15 28q2 8 2 29v61h-17v103h41v-164l-6 -41q-5 -21 -12 -31t-23 -10zM311 0v25q11 0 15 28q2 8 2 29v61h-17v103h41v-164l-6 -41q-5 -21 -12 -31t-23 -10z" />
<glyph unicode="&#x2022;" horiz-adv-x="573" d="M213 727q0 31 21.5 52.5t52.5 21.5t52 -21.5t21 -52.5t-21 -52.5t-52 -21.5t-52.5 21.5t-21.5 52.5z" />
<glyph unicode="&#x2026;" horiz-adv-x="1007" d="M156 0v102h41v-102h-41zM483 0v102h41v-102h-41zM811 0v102h41v-102h-41z" />
<glyph unicode="&#x202f;" horiz-adv-x="372" />
<glyph unicode="&#x2039;" horiz-adv-x="659" d="M100 520l414 414l18 -19l-413 -413zM100 520l19 19l413 -414l-18 -19z" />
<glyph unicode="&#x203a;" horiz-adv-x="659" d="M127 125l414 414l18 -19l-414 -414zM127 915l18 19l414 -414l-18 -18z" />
<glyph unicode="&#x205f;" horiz-adv-x="466" />
<glyph unicode="&#x20ac;" horiz-adv-x="1345" d="M102 510v25h113q-16 72 -16 192q0 121 16 193h-113v24h117q52 239 198 385t365 146q137 0 248.5 -60.5t188.5 -169.5l-19 -16q-153 221 -418 221q-208 0 -347 -138.5t-191 -367.5h645v-24h-649q-17 -107 -17 -193q0 -85 17 -192h649v-25h-645q52 -229 191 -367.5 t347 -138.5q265 0 418 221l19 -16q-77 -109 -188 -169t-249 -60q-219 0 -365 145.5t-198 384.5h-117z" />
<glyph unicode="&#x2122;" horiz-adv-x="1337" d="M90 1430v24h434v-24h-434zM295 872v582h24v-582h-24zM610 872v582h25v-582h-25zM618 1454h27l250 -582h-27zM870 872l250 582h27l-250 -582h-27zM1130 872v582h25v-582h-25z" />
<glyph unicode="&#x25fc;" horiz-adv-x="1024" d="M0 0v1024h1024v-1024h-1024z" />
</font>
</defs>
</svg>
