<?xml version="1.0" standalone="no"?>
<!DOCTYPE svg PUBLIC "-//W3C//DTD SVG 1.1//EN" "http://www.w3.org/Graphics/SVG/1.1/DTD/svg11.dtd" >
<svg xmlns="http://www.w3.org/2000/svg" xmlns:xlink="http://www.w3.org/1999/xlink" version="1.1">
<metadata></metadata>
<defs>
<font id="dual600" horiz-adv-x="1695" >
<font-face units-per-em="2048" ascent="1595" descent="-453" />
<missing-glyph horiz-adv-x="524" />
<glyph unicode="AE" horiz-adv-x="2228" d="M-14 0l1040 1454h1092v-205h-840v-420h778v-204h-778v-420h840v-205h-1045v385h-561l-274 -385h-252zM659 590h414v577z" />
<glyph unicode="ae" horiz-adv-x="1759" d="M51 303q0 134 110 229t265 95h313v41q0 76 -70 124t-171 48q-96 0 -209 -33q-34 -11 -84 -31l-53 187q77 31 110 41q115 40 236 40q117 0 214.5 -43.5t157.5 -121.5q67 79 157.5 122t193.5 43q131 0 241.5 -71t175 -193.5t64.5 -267.5v-49h-756q18 -120 94.5 -199.5 t180.5 -79.5q72 0 135 30.5t106 84.5l170 -115q-73 -95 -180.5 -149.5t-230.5 -54.5q-98 0 -186.5 41t-155.5 114q-61 -73 -160 -114t-221 -41q-185 0 -316 95t-131 228zM256 324q0 -59 70.5 -99.5t171.5 -40.5t171 40t70 100v139h-241q-101 0 -171.5 -40t-70.5 -99z M961 627h518q-30 95 -99.5 154t-158.5 59q-90 0 -160 -59t-100 -154z" />
<glyph unicode="OE" horiz-adv-x="2115" d="M90 727q0 202 101 369.5t272.5 262.5t374.5 95h1167v-205h-840v-420h779v-204h-779v-420h840v-205h-1167q-203 0 -374.5 95t-272.5 262.5t-101 369.5zM295 727q0 -146 73 -266.5t197.5 -188t272.5 -67.5h123v1044h-123q-148 0 -272.5 -67.5t-197.5 -188t-73 -266.5z" />
<glyph unicode="oe" horiz-adv-x="1937" d="M76 512q0 146 67.5 268t187.5 193t267 71q129 0 237 -55t181 -153q67 98 166 153t215 55q131 0 241.5 -71t175 -193.5t64.5 -267.5v-82h-750q24 -107 98 -176.5t171 -69.5q72 0 135 30.5t106 84.5l170 -115q-73 -95 -180.5 -149.5t-230.5 -54.5q-115 0 -214.5 55 t-166.5 151q-74 -96 -182 -151t-236 -55q-147 0 -267 71t-187.5 193t-67.5 268zM281 512q0 -137 90 -232.5t227 -95.5t227 95.5t90 232.5t-90 232.5t-227 95.5t-227 -95.5t-90 -232.5zM1128 594h535q-25 108 -97.5 177t-168.5 69q-97 0 -171 -69.5t-98 -176.5z" />
<glyph unicode="&#xfb01;" horiz-adv-x="1224" d="M59 819v205h164v143q0 154 107.5 261.5t261.5 107.5h491v-287h-204v82h-287q-68 0 -116 -48.5t-48 -115.5v-143h287v-205h-287v-819h-205v819h-164zM879 0v1024h204v-1024h-204z" />
<glyph unicode="&#xfb02;" horiz-adv-x="1226" d="M59 819v205h164v143q0 154 107.5 261.5t261.5 107.5h491v-1536h-204v1331h-287q-68 0 -116 -48.5t-48 -115.5v-143h287v-205h-287v-819h-205v819h-164z" />
<glyph unicode="&#xfb03;" horiz-adv-x="1826" d="M59 819v205h164v164q0 154 107.5 261t261.5 107q94 0 170 -40l-96 -183q-36 19 -74 19q-68 0 -116 -48t-48 -116v-164h397v143q0 154 107.5 261.5t261.5 107.5h492v-287h-205v82h-287q-68 0 -116 -48.5t-48 -115.5v-143h287v-205h-287v-819h-205v819h-397v-819h-205v819 h-164zM1481 0v1024h205v-1024h-205z" />
<glyph unicode="&#xfb04;" horiz-adv-x="1828" d="M59 819v205h164v164q0 154 107.5 261t261.5 107q94 0 170 -40l-96 -183q-36 19 -74 19q-68 0 -116 -48t-48 -116v-164h397v143q0 154 107.5 261.5t261.5 107.5h492v-1536h-205v1331h-287q-68 0 -116 -48.5t-48 -115.5v-143h287v-205h-287v-819h-205v819h-397v-819h-205 v819h-164z" />
<glyph horiz-adv-x="0" />
<glyph horiz-adv-x="682" />
<glyph horiz-adv-x="0" />
<glyph horiz-adv-x="0" />
<glyph unicode="&#xd;" horiz-adv-x="524" />
<glyph unicode=" "  horiz-adv-x="524" />
<glyph unicode="&#x09;" horiz-adv-x="524" />
<glyph unicode="&#xa0;" horiz-adv-x="524" />
<glyph unicode="!" horiz-adv-x="499" d="M147 0v205h205v-205h-205zM147 369v1085h205v-1085h-205z" />
<glyph unicode="&#x22;" horiz-adv-x="774" d="M121 1454h205l-21 -430h-164zM449 1454h204l-20 -430h-164z" />
<glyph unicode="#" horiz-adv-x="1646" d="M80 369l24 204h355l35 306h-355l23 204h354l43 371h205l-43 -371h287l43 371h204l-43 -371h357l-23 -204h-356l-35 -306h356l-22 -204h-356l-41 -369h-205l41 369h-287l-41 -369h-205l41 369h-356zM664 573h286l35 306h-287z" />
<glyph unicode="$" horiz-adv-x="1331" d="M80 410h205q0 -95 75 -154.5t201 -77.5v492q-100 22 -174.5 51.5t-137.5 75.5t-95.5 113.5t-32.5 156.5q0 173 121.5 280.5t318.5 133.5v116h205v-116q199 -25 319.5 -137.5t120.5 -276.5h-205q0 79 -64.5 133.5t-170.5 73.5v-445q112 -27 191.5 -58.5t149 -79.5 t105 -118.5t35.5 -162.5q0 -123 -64.5 -218t-171 -148.5t-245.5 -70.5v-116h-205v116q-212 26 -346.5 141.5t-134.5 295.5zM326 1067q0 -126 235 -193v400q-112 -18 -173.5 -70.5t-61.5 -136.5zM766 180q125 19 200.5 79.5t75.5 150.5q0 45 -20 79.5t-59 59.5t-85.5 42.5 t-111.5 33.5v-445z" />
<glyph unicode="%" horiz-adv-x="1642" d="M76 0l1229 1454h264l-1229 -1454h-264zM113 1147q0 127 89.5 217t217.5 90t217.5 -90t89.5 -217t-89.5 -217t-217.5 -90t-217.5 90t-89.5 217zM317 1147q0 -43 30 -73t73 -30t72.5 30t29.5 73t-29.5 72.5t-72.5 29.5t-73 -29.5t-30 -72.5zM918 307q0 127 90 217t217 90 t217 -90t90 -217t-90 -217t-217 -90t-217 90t-90 217zM1122 307q0 -43 30 -72.5t73 -29.5t72.5 29.5t29.5 72.5t-29.5 73t-72.5 30t-73 -30t-30 -73z" />
<glyph unicode="&#x26;" horiz-adv-x="1435" d="M90 373q0 164 113 284v430q0 166 116.5 283t282.5 117t282.5 -117t116.5 -283q0 -77 -30.5 -140.5t-80 -107t-113 -83t-129.5 -68t-129.5 -63t-113 -67.5t-80 -81t-30.5 -104q0 -83 90 -142t217 -59t217 59t90 142v92h-143v205h225q86 0 145.5 59t59.5 145h205 q0 -134 -81 -244t-206 -147v-110q0 -110 -68 -203.5t-186 -148t-258 -54.5t-258 54.5t-186 148t-68 203.5zM408 799q42 22 110 53t109 51.5t84.5 48.5t64.5 61.5t21 73.5q0 79 -57.5 137t-137.5 58q-79 0 -136.5 -57.5t-57.5 -137.5v-288z" />
<glyph unicode="'" horiz-adv-x="438" d="M133 1024v102q35 0 58.5 23.5t23.5 58.5v41h123v-20q0 -86 -59.5 -145.5t-145.5 -59.5zM133 1249v205h205v-205h-205z" />
<glyph unicode="(" horiz-adv-x="598" d="M90 727q0 263 61 487.5t165 355t225 130.5v-82q-66 0 -123 -119t-90 -324.5t-33 -447.5t33 -447.5t90 -324.5t123 -119v-82q-121 0 -225 130.5t-165 355t-61 487.5z" />
<glyph unicode=")" horiz-adv-x="598" d="M57 -164q66 0 123 119t90 324.5t33 447.5t-33 447.5t-90 324.5t-123 119v82q121 0 225 -130.5t165 -355t61 -487.5t-61 -487.5t-165 -355t-225 -130.5v82z" />
<glyph unicode="*" horiz-adv-x="704" d="M119 1141l143 73l-143 74l53 92l135 -88l-8 162h107l-9 -162l135 88l54 -92l-142 -74l142 -73l-54 -92l-135 88l9 -162h-107l8 162l-135 -88z" />
<glyph unicode="+" horiz-adv-x="1077" d="M84 563v205h352v352h205v-352h352v-205h-352v-352h-205v352h-352z" />
<glyph unicode="," horiz-adv-x="458" d="M127 0v205h205v-225q0 -86 -59.5 -145.5t-145.5 -59.5v102q35 0 58.5 23.5t23.5 58.5v41h-82z" />
<glyph unicode="-" horiz-adv-x="962" d="M129 471v205h705v-205h-705z" />
<glyph unicode="." horiz-adv-x="462" d="M129 0v205h205v-205h-205z" />
<glyph unicode="/" horiz-adv-x="925" d="M68 -82l573 1618h217l-573 -1618h-217z" />
<glyph unicode="0" horiz-adv-x="1454" d="M102 727q0 223 79.5 396.5t221.5 268.5t324 95t324 -95t221.5 -268.5t79.5 -396.5t-79.5 -396.5t-221.5 -268.5t-324 -95t-324 95t-221.5 268.5t-79.5 396.5zM307 727q0 -254 114.5 -404.5t305.5 -150.5t305.5 150.5t114.5 404.5q0 253 -114.5 404t-305.5 151 t-305.5 -151t-114.5 -404z" />
<glyph unicode="1" horiz-adv-x="684" d="M23 1149l305 305h204v-1454h-204v1163l-160 -159z" />
<glyph unicode="2" horiz-adv-x="1329" d="M90 0v205q0 85 31.5 157t85 123t122.5 94.5t145.5 77.5t153 65t145.5 63.5t122.5 67.5t85 81.5t31.5 101.5q0 109 -82 177.5t-256 68.5q-156 0 -238.5 -55.5t-95.5 -147.5l-203 35q26 165 165.5 269t371.5 104q131 0 236 -35.5t171 -98t101 -143.5t35 -174 q0 -87 -31.5 -160t-85 -124.5t-122.5 -95t-145.5 -76.5t-153 -63.5t-145.5 -62t-122.5 -66.5t-85 -81.5t-31.5 -101.5h922v-205h-1127z" />
<glyph unicode="3" horiz-adv-x="1331" d="M74 342l202 35q19 -91 109 -148t266 -57q102 0 178 20t118.5 56t62.5 78.5t20 93.5q0 106 -90 170.5t-289 64.5h-82v205h82q307 0 307 205q0 45 -15 82t-48 68.5t-95 49t-149 17.5q-146 0 -218 -48.5t-85 -125.5l-203 35q27 152 154 248t352 96q129 0 229.5 -34t161 -93 t91 -133.5t30.5 -161.5q0 -184 -129 -295q101 -59 151 -149t50 -201q0 -93 -36.5 -174t-106.5 -144t-183.5 -99t-257.5 -36q-129 0 -233.5 29t-174 81t-112 118.5t-57.5 146.5z" />
<glyph unicode="4" horiz-adv-x="1331" d="M55 389v205l819 860h205v-860h164v-205h-164v-389h-205v389h-819zM338 594h536v565z" />
<glyph unicode="5" horiz-adv-x="1314" d="M82 373l203 35q19 -105 110 -170.5t264 -65.5q191 0 285 79.5t94 199.5q0 119 -93.5 192.5t-285.5 73.5h-538l123 737h858v-205h-688l-56 -327h301q141 0 253 -37t184 -101.5t109.5 -149t37.5 -183.5t-38 -185.5t-109 -153.5t-184 -106t-253 -39q-126 0 -230 32 t-174.5 88t-114 128.5t-58.5 157.5z" />
<glyph unicode="6" horiz-adv-x="1314" d="M104 727q0 226 69 397.5t201.5 267t313.5 95.5q153 0 281.5 -63t204.5 -173l-168 -112q-47 66 -133 104.5t-185 38.5q-176 0 -272 -131.5t-107 -368.5q134 140 379 140q248 0 395.5 -135t147.5 -336q0 -98 -37.5 -185.5t-106 -154t-172 -105.5t-227.5 -39 q-181 0 -313.5 95.5t-201.5 267t-69 397.5zM350 451q0 -111 100 -195t238 -84q163 0 250.5 80.5t87.5 198.5q0 116 -87.5 191t-250.5 75t-250.5 -75t-87.5 -191z" />
<glyph unicode="7" horiz-adv-x="1118" d="M55 1249v205h1024v-205l-635 -1249h-229l635 1249h-795z" />
<glyph unicode="8" horiz-adv-x="1359" d="M96 420q0 111 50 201t151 149q-129 111 -129 295q0 87 30.5 161.5t91 133.5t161 93t229.5 34t229.5 -34t161 -93t91 -133.5t30.5 -161.5q0 -184 -129 -295q101 -59 151 -149t50 -201q0 -93 -36.5 -174t-106.5 -144t-183.5 -99t-257.5 -36t-257.5 36t-183.5 99t-106.5 144 t-36.5 174zM301 420q0 -108 90 -178t289 -70q102 0 178 20t118.5 56t62.5 78.5t20 93.5q0 106 -90 170.5t-289 64.5q-103 0 -178.5 -18t-118.5 -51.5t-62.5 -74t-19.5 -91.5zM373 1065q0 -205 307 -205t307 205q0 45 -15 82t-48 68.5t-95 49t-149 17.5t-149 -17.5t-95 -49 t-48 -68.5t-15 -82z" />
<glyph unicode="9" horiz-adv-x="1314" d="M84 1004q0 98 37.5 185.5t106 153.5t172 105t227.5 39q181 0 313.5 -95.5t201 -266.5t68.5 -398t-68.5 -398t-201 -266.5t-313.5 -95.5q-153 0 -281.5 63t-204.5 173l168 112q47 -66 133 -104.5t185 -38.5q176 0 272 131.5t107 368.5q-134 -140 -379 -140 q-248 0 -395.5 135.5t-147.5 336.5zM289 1004q0 -116 87.5 -191.5t250.5 -75.5t250.5 75.5t87.5 191.5q0 111 -100 194.5t-238 83.5q-163 0 -250.5 -80t-87.5 -198z" />
<glyph unicode=":" horiz-adv-x="462" d="M129 0v205h205v-205h-205zM129 686v205h205v-205h-205z" />
<glyph unicode=";" horiz-adv-x="462" d="M129 0v205h205v-225q0 -86 -59.5 -145.5t-145.5 -59.5v102q35 0 58.5 23.5t23.5 58.5v41h-82zM129 686v205h205v-205h-205z" />
<glyph unicode="&#x3c;" horiz-adv-x="976" d="M80 524v232l745 409v-231l-534 -295l534 -293v-231z" />
<glyph unicode="=" horiz-adv-x="1064" d="M139 317v205h787v-205h-787zM139 707v204h787v-204h-787z" />
<glyph unicode="&#x3e;" horiz-adv-x="976" d="M152 115v231l534 293l-534 295v231l745 -409v-232z" />
<glyph unicode="?" horiz-adv-x="1273" d="M72 1036q0 121 75 225t205 165t283 61t283 -61t205 -165t75 -225q0 -133 -70.5 -229.5t-226.5 -185.5q-31 -18 -78 -44.5t-63.5 -36t-44 -28t-35.5 -29t-19 -29t-13.5 -38t-2.5 -47.5h-205q0 96 24 153.5t88 111.5t206 136q132 75 183.5 132t51.5 134q0 100 -105 173 t-253 73t-253.5 -73t-105.5 -173h-204zM440 0v205h205v-205h-205z" />
<glyph unicode="@" d="M98 727q0 155 60 295.5t162 242.5t242.5 162t295.5 60t295.5 -60t242.5 -162t162 -242.5t60 -295.5v-106q0 -113 -80 -193t-192 -80q-113 0 -193 80q-121 -121 -295 -121q-173 0 -296.5 123.5t-123.5 296.5t123.5 296.5t296.5 123.5t296.5 -123.5t123.5 -296.5v-106 q0 -29 19.5 -48.5t48.5 -19.5t48 19.5t19 48.5v106q0 112 -44 215t-118.5 177.5t-177.5 118.5t-215 44q-113 0 -216 -44t-177 -118.5t-118 -177.5t-44 -215q0 -113 44 -216t118 -177t177 -118t216 -44v-205q-155 0 -295.5 60t-242.5 162t-162 242.5t-60 295.5zM643 727 q0 -91 62 -153t153 -62q90 0 152.5 62.5t62.5 152.5q0 89 -63 152t-152 63q-90 0 -152.5 -62.5t-62.5 -152.5z" />
<glyph unicode="A" horiz-adv-x="1404" d="M18 0l570 1454h229l569 -1454h-219l-151 385h-629l-149 -385h-220zM467 590h469l-234 598z" />
<glyph unicode="B" horiz-adv-x="1505" d="M184 0v1454h731q172 0 294 -122t122 -294q0 -157 -106 -276q88 -57 139 -148.5t51 -199.5q0 -172 -122 -293t-294 -121h-815zM389 205h610q88 0 149.5 60.5t61.5 148.5t-61.5 149.5t-149.5 61.5h-610v-420zM389 829h526q88 0 149.5 60.5t61.5 148.5t-61.5 149.5 t-149.5 61.5h-526v-420z" />
<glyph unicode="C" horiz-adv-x="1429" d="M88 727q0 155 60 295.5t162 242.5t242.5 162t295.5 60q303 0 528 -215l-143 -146q-77 74 -176 115t-209 41q-113 0 -216 -44t-177 -118.5t-118 -177.5t-44 -215q0 -113 44 -216t118 -177t177 -118t216 -44q222 0 385 156l143 -146q-107 -102 -242 -158.5t-286 -56.5 q-155 0 -295.5 60t-242.5 162t-162 242.5t-60 295.5z" />
<glyph unicode="D" horiz-adv-x="1564" d="M184 0v1454h564q197 0 364.5 -97.5t265 -265t97.5 -364.5t-97.5 -364.5t-265 -265t-364.5 -97.5h-564zM389 205h359q106 0 203 41t167 111t111 167t41 203t-41 203t-111 167t-167 111t-203 41h-359v-1044z" />
<glyph unicode="E" horiz-adv-x="1339" d="M184 0v1454h1045v-205h-840v-420h778v-204h-778v-420h840v-205h-1045z" />
<glyph unicode="F" horiz-adv-x="1316" d="M184 0v1454h1045v-205h-840v-420h778v-204h-778v-625h-205z" />
<glyph unicode="G" horiz-adv-x="1556" d="M88 727q0 155 60 295.5t162 242.5t242.5 162t295.5 60q303 0 528 -215l-143 -146q-77 74 -176 115t-209 41q-113 0 -216 -44t-177 -118.5t-118 -177.5t-44 -215q0 -113 44 -216t118 -177t177 -118t216 -44q222 0 385 156v278h-553v205h758v-811h-205v72 q-178 -105 -385 -105q-155 0 -295.5 60t-242.5 162t-162 242.5t-60 295.5z" />
<glyph unicode="H" horiz-adv-x="1589" d="M184 0v1454h205v-625h811v625h205v-1454h-205v625h-811v-625h-205z" />
<glyph unicode="I" horiz-adv-x="573" d="M184 0v1454h205v-1454h-205z" />
<glyph unicode="J" horiz-adv-x="1001" d="M10 121l146 143q79 -92 202 -92q110 0 188.5 78t78.5 188v1016h204v-1016q0 -195 -138 -333t-333 -138q-207 0 -348 154z" />
<glyph unicode="K" horiz-adv-x="1343" d="M184 0v1454h205v-666l653 666h287l-602 -614l602 -840h-254l-491 692l-195 -198v-494h-205z" />
<glyph unicode="L" horiz-adv-x="1280" d="M184 0v1454h205v-1249h860v-205h-1065z" />
<glyph unicode="M" horiz-adv-x="1855" d="M184 0v1454h205l539 -1206l538 1206h205v-1454h-205v975l-428 -975h-221l-428 975v-975h-205z" />
<glyph unicode="N" horiz-adv-x="1589" d="M184 0v1454h205l811 -1106v1106h205v-1454h-205l-811 1106v-1106h-205z" />
<glyph unicode="O" d="M88 727q0 155 60 295.5t162 242.5t242.5 162t295.5 60t295.5 -60t242.5 -162t162 -242.5t60 -295.5t-60 -295.5t-162 -242.5t-242.5 -162t-295.5 -60t-295.5 60t-242.5 162t-162 242.5t-60 295.5zM293 727q0 -113 44 -216t118 -177t177 -118t216 -44q112 0 215 44 t177.5 118t118.5 177t44 216q0 112 -44 215t-118.5 177.5t-177.5 118.5t-215 44q-113 0 -216 -44t-177 -118.5t-118 -177.5t-44 -215z" />
<glyph unicode="P" horiz-adv-x="1392" d="M184 0v1454h650q135 0 249.5 -67t181 -181.5t66.5 -249.5q0 -204 -146 -349.5t-351 -145.5h-445v-461h-205zM389 666h445q123 0 207.5 84t84.5 206q0 123 -84.5 208t-207.5 85h-445v-583z" />
<glyph unicode="Q" d="M88 727q0 155 60 295.5t162 242.5t242.5 162t295.5 60t295.5 -60t242.5 -162t162 -242.5t60 -295.5q0 -251 -156 -461l125 -125l-141 -141l-125 125q-211 -158 -463 -158q-155 0 -295.5 60t-242.5 162t-162 242.5t-60 295.5zM293 727q0 -113 44 -216t118 -177t177 -118 t216 -44q175 0 315 98l-123 125l140 142l125 -125q98 137 98 315q0 112 -44 215t-118.5 177.5t-177.5 118.5t-215 44q-113 0 -216 -44t-177 -118.5t-118 -177.5t-44 -215z" />
<glyph unicode="R" horiz-adv-x="1423" d="M184 0v1454h680q126 0 233.5 -63t170.5 -170.5t63 -233.5q0 -165 -100 -290t-256 -162l323 -535h-237l-316 522h-356v-522h-205zM389 727h475q109 0 185.5 75.5t76.5 184.5t-76.5 185.5t-185.5 76.5h-475v-522z" />
<glyph unicode="S" horiz-adv-x="1331" d="M80 410h205q0 -113 107.5 -175.5t271.5 -62.5q161 0 269.5 65t108.5 173q0 31 -10.5 58t-27 46.5t-46.5 37.5t-57 30t-71.5 25t-78 20.5t-87.5 19.5q-97 18 -170 38.5t-146.5 54.5t-120.5 77t-76.5 106.5t-29.5 143.5q0 130 74 227t196 145t273 48q239 0 390.5 -117 t151.5 -303h-205q0 100 -96 157.5t-241 57.5q-157 0 -247.5 -56.5t-90.5 -158.5q0 -79 94.5 -133.5t243.5 -81.5q105 -19 185.5 -41.5t158 -58.5t128 -81.5t81 -111.5t30.5 -149q0 -137 -79 -239t-210 -153t-294 -51q-162 0 -294 53t-211 155.5t-79 234.5z" />
<glyph unicode="T" horiz-adv-x="1331" d="M31 1249v205h1269v-205h-532v-1249h-205v1249h-532z" />
<glyph unicode="U" horiz-adv-x="1550" d="M166 578v876h205v-876q0 -167 119 -286.5t286 -119.5t286.5 119.5t119.5 286.5v876h204v-876q0 -165 -82 -306t-222.5 -223t-305.5 -82t-305.5 82t-222.5 223t-82 306z" />
<glyph unicode="V" horiz-adv-x="1404" d="M18 1454h220l464 -1188l465 1188h219l-569 -1454h-229z" />
<glyph unicode="W" horiz-adv-x="1941" d="M45 1454h213l303 -1077l303 1077h213l303 -1077l303 1077h213l-409 -1454h-213l-303 1075l-303 -1075h-213z" />
<glyph unicode="X" horiz-adv-x="1302" d="M29 0l499 727l-499 727h245l377 -549l377 549h246l-500 -727l500 -727h-246l-377 547l-377 -547h-245z" />
<glyph unicode="Y" horiz-adv-x="1392" d="M12 1454h248l436 -647l437 647h247l-581 -858v-596h-205v596z" />
<glyph unicode="Z" horiz-adv-x="1398" d="M84 0v205l944 1044h-924v205h1201v-205l-945 -1044h945v-205h-1221z" />
<glyph unicode="[" horiz-adv-x="645" d="M141 -246v1946h451v-205h-246v-1536h246v-205h-451z" />
<glyph unicode="\" horiz-adv-x="925" d="M68 1536h217l573 -1618h-217z" />
<glyph unicode="]" horiz-adv-x="645" d="M53 -41h246v1536h-246v205h451v-1946h-451v205z" />
<glyph unicode="^" horiz-adv-x="1105" d="M109 872l327 582h234l327 -582h-233l-211 375l-211 -375h-233z" />
<glyph unicode="_" horiz-adv-x="1187" d="M119 -20h950v-205h-950v205z" />
<glyph unicode="`" horiz-adv-x="770" d="M123 1354l78 166l438 -226l-61 -129z" />
<glyph unicode="a" horiz-adv-x="1079" d="M53 303q0 134 110 229t265 95h313v41q0 76 -70 124t-171 48q-96 0 -209 -33q-34 -11 -84 -31l-53 187q78 31 110 41q115 40 236 40q187 0 316.5 -106.5t129.5 -269.5v-668h-205v127q-52 -68 -134.5 -107.5t-178.5 -39.5q-155 0 -265 94.5t-110 228.5zM258 324 q0 -59 70.5 -99.5t171.5 -40.5t171 40t70 100v139h-241q-101 0 -171.5 -40t-70.5 -99z" />
<glyph unicode="b" horiz-adv-x="1214" d="M141 0v1536h205v-662q63 80 149.5 125t184.5 45q124 0 229 -71t166.5 -193.5t61.5 -267.5t-61.5 -267.5t-166.5 -193.5t-229 -71q-98 0 -185 44t-149 123v-147h-205zM346 512q0 -136 85.5 -232t207.5 -96t207.5 96t85.5 232t-85.5 232t-207.5 96t-207.5 -96t-85.5 -232z " />
<glyph unicode="c" horiz-adv-x="1060" d="M76 512q0 146 67.5 268t187.5 193t267 71q123 0 231 -54.5t181 -149.5l-170 -115q-43 54 -106.5 84.5t-135.5 30.5q-137 0 -227 -95.5t-90 -232.5t90 -232.5t227 -95.5q72 0 135.5 30.5t106.5 84.5l170 -115q-73 -95 -181 -149.5t-231 -54.5q-147 0 -267 71t-187.5 193 t-67.5 268z" />
<glyph unicode="d" horiz-adv-x="1216" d="M78 512q0 145 61.5 267.5t166.5 193.5t229 71q96 0 182.5 -45t150.5 -125v662h205v-1536h-205v147q-64 -79 -150 -123t-183 -44q-124 0 -229 71t-166.5 193.5t-61.5 267.5zM283 512q0 -136 85 -232t207 -96t207.5 96t85.5 232t-85.5 232t-207.5 96t-207 -96t-85 -232z " />
<glyph unicode="e" horiz-adv-x="1099" d="M76 512q0 145 64.5 267.5t175 193.5t241.5 71t241.5 -71t175 -193.5t64.5 -267.5v-82h-749q24 -107 97.5 -176.5t170.5 -69.5q72 0 135.5 30.5t106.5 84.5l170 -115q-73 -95 -181 -149.5t-231 -54.5q-131 0 -241.5 71t-175 193.5t-64.5 267.5zM289 594h534 q-25 108 -97.5 177t-168.5 69q-97 0 -170.5 -69.5t-97.5 -176.5z" />
<glyph unicode="f" horiz-adv-x="768" d="M29 819v205h225v164q0 154 107.5 261t261.5 107q84 0 158 -36t126 -99l-162 -125q-50 56 -122 56q-67 0 -115.5 -48t-48.5 -116v-164h286v-205h-286v-819h-205v819h-225z" />
<glyph unicode="g" horiz-adv-x="1214" d="M78 512q0 145 61.5 267.5t166.5 193.5t229 71q96 0 182.5 -45t150.5 -125v150h205v-1014q0 -115 -44.5 -204t-119 -141.5t-164 -78.5t-188.5 -26q-169 0 -297 55q-67 25 -110 57l98 181q2 -1 16 -9.5t19 -11t20.5 -11t24.5 -12.5t27 -11.5t32.5 -11t35 -8.5t40.5 -7.5 t44.5 -4.5t49.5 -2q158 0 234.5 65.5t76.5 180.5v137q-64 -79 -150 -123t-183 -44q-124 0 -229 71t-166.5 193.5t-61.5 267.5zM283 512q0 -136 85 -232t207 -96t207.5 96t85.5 232t-85.5 232t-207.5 96t-207 -96t-85 -232z" />
<glyph unicode="h" horiz-adv-x="1169" d="M143 0v1536h205v-639q55 69 133.5 108t169.5 39q158 0 271.5 -113.5t113.5 -271.5v-659h-205v598q0 98 -71.5 170t-169.5 72q-99 0 -170.5 -68t-71.5 -164v-608h-205z" />
<glyph unicode="i" horiz-adv-x="491" d="M143 0v1024h205v-1024h-205zM143 1249v205h205v-205h-205z" />
<glyph unicode="j" horiz-adv-x="491" d="M-20 -236q67 0 115 48t48 116v1096h205v-1096q0 -154 -107 -261t-261 -107v204zM143 1249v205h205v-205h-205z" />
<glyph unicode="k" horiz-adv-x="1054" d="M143 0v1536h205v-934l410 422h284l-426 -438l426 -586h-254l-317 436l-123 -127v-309h-205z" />
<glyph unicode="l" horiz-adv-x="491" d="M143 0v1536h205v-1536h-205z" />
<glyph unicode="m" horiz-adv-x="1855" d="M143 0v1024h205v-127q55 69 133.5 108t169.5 39q112 0 204 -57.5t140 -155.5q48 98 139 155.5t205 57.5q158 0 271.5 -113.5t113.5 -271.5v-659h-204v598q0 98 -72 170t-170 72q-99 0 -170.5 -68t-71.5 -164v-608h-205v608q0 96 -71.5 164t-169.5 68q-99 0 -170.5 -68 t-71.5 -164v-608h-205z" />
<glyph unicode="n" horiz-adv-x="1169" d="M143 0v1024h205v-127q55 69 133.5 108t169.5 39q158 0 271.5 -113.5t113.5 -271.5v-659h-205v598q0 98 -71.5 170t-169.5 72q-99 0 -170.5 -68t-71.5 -164v-608h-205z" />
<glyph unicode="o" horiz-adv-x="1196" d="M76 512q0 146 67.5 268t187.5 193t267 71t267 -71t187.5 -193t67.5 -268t-67.5 -268t-187.5 -193t-267 -71t-267 71t-187.5 193t-67.5 268zM281 512q0 -137 90 -232.5t227 -95.5t227 95.5t90 232.5t-90 232.5t-227 95.5t-227 -95.5t-90 -232.5z" />
<glyph unicode="p" horiz-adv-x="1216" d="M143 -430v1454h205v-150q63 80 149.5 125t184.5 45q124 0 229 -71t166.5 -193.5t61.5 -267.5t-61.5 -267.5t-166.5 -193.5t-229 -71q-98 0 -185 44t-149 123v-577h-205zM348 512q0 -136 85.5 -232t207.5 -96t207.5 96t85.5 232t-85.5 232t-207.5 96t-207.5 -96 t-85.5 -232z" />
<glyph unicode="q" horiz-adv-x="1216" d="M78 512q0 145 61.5 267.5t166.5 193.5t229 71q96 0 182.5 -45t150.5 -125v150h205v-1454h-205v577q-64 -79 -150 -123t-183 -44q-124 0 -229 71t-166.5 193.5t-61.5 267.5zM283 512q0 -136 85 -232t207 -96t207.5 96t85.5 232t-85.5 232t-207.5 96t-207 -96t-85 -232z " />
<glyph unicode="r" horiz-adv-x="733" d="M143 0v1024h205v-141q61 75 155.5 118t209.5 43v-204q-185 0 -275 -79t-90 -265v-496h-205z" />
<glyph unicode="s" horiz-adv-x="1007" d="M70 305h204q0 -65 67 -103t165 -38t164.5 38t66.5 103q0 17 -7.5 31t-25.5 25.5t-35 20t-48.5 17t-53 13.5t-61.5 14q-64 12 -110.5 23.5t-96.5 29t-83.5 40t-62 53t-42 71.5t-13.5 92q0 151 112 230t286 79t285.5 -79t111.5 -230h-205q0 60 -47.5 92.5t-134.5 32.5 q-89 0 -146 -33.5t-57 -91.5q0 -16 5 -29t17 -22t23.5 -15.5t32.5 -12t36.5 -8.5t43.5 -8t45 -9q79 -16 139 -33t118.5 -44t95.5 -60.5t60 -81.5t23 -107q0 -107 -59.5 -181.5t-156 -109t-220.5 -34.5t-220.5 34.5t-156 109t-59.5 181.5z" />
<glyph unicode="t" horiz-adv-x="692" d="M25 840v204h184v369l205 41v-410h204v-204h-204v-430q0 -86 59 -145.5t145 -59.5v-205q-167 0 -288 121.5t-121 288.5v430h-184z" />
<glyph unicode="u" horiz-adv-x="1169" d="M133 365v659h205v-598q0 -98 72 -170t170 -72t169.5 68t71.5 164v608h205v-1024h-205v125q-55 -68 -134 -106.5t-169 -38.5q-161 0 -273 112t-112 273z" />
<glyph unicode="v" horiz-adv-x="1064" d="M33 1024h221l278 -733l279 733h221l-389 -1024h-221z" />
<glyph unicode="w" horiz-adv-x="1519" d="M39 1024h213l201 -670l200 670h213l201 -670l201 670h213l-307 -1024h-213l-201 668l-201 -668h-213z" />
<glyph unicode="x" horiz-adv-x="1046" d="M29 0l368 512l-368 512h252l241 -338l244 338h252l-369 -512l369 -512h-252l-244 336l-241 -336h-252z" />
<glyph unicode="y" horiz-adv-x="1064" d="M33 1024h221l278 -733l279 733h221l-432 -1137q-78 -200 -254 -278q-80 -36 -162 -39v205q44 0 84 18q87 33 127 137l27 70z" />
<glyph unicode="z" horiz-adv-x="1056" d="M74 0v205l618 614h-577v205h852v-205l-619 -614h619v-205h-893z" />
<glyph unicode="{" horiz-adv-x="722" d="M55 625v204h82q35 0 58.5 24.5t23.5 57.5v502q0 119 84.5 203t202.5 84h164v-205h-164q-35 0 -58.5 -23.5t-23.5 -58.5v-502q0 -103 -68 -184q68 -85 68 -184v-502q0 -35 23.5 -58.5t58.5 -23.5h164v-205h-164q-118 0 -202.5 84t-84.5 203v502q0 35 -23.5 58.5 t-58.5 23.5h-82z" />
<glyph unicode="|" horiz-adv-x="491" d="M143 -389v2191h205v-2191h-205z" />
<glyph unicode="}" horiz-adv-x="722" d="M53 -41h164q35 0 58.5 23.5t23.5 58.5v502q0 99 68 184q-68 81 -68 184v502q0 35 -23.5 58.5t-58.5 23.5h-164v205h164q119 0 203 -84t84 -203v-502q0 -33 23.5 -57.5t58.5 -24.5h82v-204h-82q-35 0 -58.5 -23.5t-23.5 -58.5v-502q0 -119 -84 -203t-203 -84h-164v205z " />
<glyph unicode="~" horiz-adv-x="1220" d="M111 903l84 84q44 44 99 65.5t104.5 22.5t102.5 -10.5t89 -26.5t67 -32q52 -32 84.5 -44.5t68.5 -8t73 33.5l84 84l145 -145l-84 -84q-44 -44 -99 -65.5t-105 -22.5t-103 10.5t-89 26.5t-67 32q-44 24 -67 34.5t-51.5 16.5t-52.5 -2.5t-54 -29.5l-84 -84z" />
<glyph unicode="&#xa1;" horiz-adv-x="499" d="M147 0v1085h205v-1085h-205zM147 1249v205h205v-205h-205z" />
<glyph unicode="&#xa2;" horiz-adv-x="1122" d="M96 512q0 189 111.5 333t288.5 185v137h184v-127q105 -13 196 -65.5t154 -134.5l-170 -115q-76 89 -180 109v-644q107 20 180 109l170 -115q-63 -85 -153.5 -136.5t-196.5 -63.5v-127h-184v137q-178 41 -289 184.5t-111 333.5zM301 512q0 -104 52 -186t143 -119v608 q-91 -37 -143 -118t-52 -185z" />
<glyph unicode="&#xa3;" horiz-adv-x="1189" d="M119 0v205q38 43 82 108q82 126 82 215q0 3 -1 9.5t-1 9.5v6h-162v205h110q-49 129 -49 231q0 99 39 191t105 159.5t157.5 107.5t190.5 40q119 0 224 -59.5t175 -157.5l-158 -133q-41 64 -104 104.5t-137 40.5q-118 0 -202.5 -87t-84.5 -206q0 -21 3 -43t5.5 -37t11 -40 t11.5 -34t15 -39.5t15 -37.5h443v-205h-402v-25q0 -121 -59 -229q-24 -52 -57 -94h731v-205h-983z" />
<glyph unicode="&#xa5;" horiz-adv-x="1482" d="M57 1454h248l436 -647l437 647h247l-544 -803h254v-143h-291v-123h291v-143h-291v-242h-205v242h-291v143h291v123h-291v143h252z" />
<glyph unicode="&#xa6;" horiz-adv-x="516" d="M156 -389v901h204v-901h-204zM156 901v901h204v-901h-204z" />
<glyph unicode="&#xa7;" horiz-adv-x="1093" d="M106 293h205q0 -65 67 -103t165 -38t164.5 38t66.5 103q0 17 -7.5 31t-25.5 25.5t-35 20t-48.5 17t-53 13.5t-61.5 14q-64 12 -110.5 23.5t-96.5 29t-83.5 40t-62 53t-42 71.5t-13.5 92q0 147 105 235q-105 78 -105 220q0 151 111.5 230t285.5 79t286 -79t112 -230h-205 q0 60 -47.5 92.5t-134.5 32.5q-89 0 -146 -33.5t-57 -91.5q0 -28 15 -48.5t47 -35t61.5 -23t79.5 -18.5q79 -16 139 -33t118.5 -44t95.5 -60.5t60 -81.5t23 -107q0 -149 -111 -225q111 -80 111 -209q0 -107 -59.5 -182t-156 -109.5t-220.5 -34.5t-221 34.5t-156.5 109.5 t-59.5 182zM340 723q0 -16 5 -29t17 -22t23 -15.5t33 -12t36.5 -9t43.5 -9t45 -8.5l49 -10q182 14 182 119q0 17 -7.5 31t-25.5 25.5t-35 20t-48.5 17t-53 13.5t-61.5 14l-66 12q-60 -14 -98.5 -52t-38.5 -85z" />
<glyph unicode="&#xa8;" horiz-adv-x="798" d="M123 1176v204h205v-204h-205zM471 1176v204h205v-204h-205z" />
<glyph unicode="&#xa9;" horiz-adv-x="1224" d="M109 707q0 209 147 356t356 147t356.5 -147t147.5 -356t-147.5 -356.5t-356.5 -147.5t-356 147.5t-147 356.5zM211 707q0 -166 117.5 -284t283.5 -118t284 118t118 284t-118 283.5t-284 117.5t-283.5 -117.5t-117.5 -283.5zM313 707q0 125 87.5 212t211.5 87 q125 0 211 -86l-73 -72q-55 55 -138 55q-82 0 -139 -57t-57 -139t57 -139.5t139 -57.5q83 0 138 55l73 -71q-86 -86 -211 -86q-124 0 -211.5 87t-87.5 212z" />
<glyph unicode="&#xab;" horiz-adv-x="1163" d="M66 520l471 471l116 -114l-356 -357l356 -356l-116 -115zM475 520l471 471l117 -114l-356 -357l356 -356l-117 -115z" />
<glyph unicode="&#xac;" horiz-adv-x="1378" d="M139 543v205h1094v-512h-205v307h-889z" />
<glyph unicode="&#xad;" horiz-adv-x="962" d="M129 471v205h705v-205h-705z" />
<glyph unicode="&#xae;" horiz-adv-x="1224" d="M109 707q0 209 147 356t356 147t356.5 -147t147.5 -356t-147.5 -356.5t-356.5 -147.5t-356 147.5t-147 356.5zM211 707q0 -166 117.5 -284t283.5 -118t284 118t118 284t-118 283.5t-284 117.5t-283.5 -117.5t-117.5 -283.5zM416 428v557h264q72 0 124 -52t52 -124 q0 -55 -31.5 -99t-81.5 -65l95 -217h-109l-88 205h-123v-205h-102zM518 735h162q31 0 52.5 21.5t21.5 52.5t-21.5 52.5t-52.5 21.5h-162v-148z" />
<glyph unicode="&#xaf;" horiz-adv-x="798" d="M123 1196v184h553v-184h-553z" />
<glyph unicode="&#xb0;" horiz-adv-x="638" d="M84 1239q0 97 69 166.5t166 69.5t166.5 -69.5t69.5 -166.5t-69.5 -166t-166.5 -69t-166 69t-69 166zM227 1239q0 -38 27 -65t65 -27t65.5 27t27.5 65t-27.5 65t-65.5 27t-65 -27t-27 -65z" />
<glyph unicode="&#xb1;" horiz-adv-x="1085" d="M150 170v205h786v-205h-786zM150 788v205h290v291h205v-291h291v-205h-291v-290h-205v290h-290z" />
<glyph unicode="&#xb2;" horiz-adv-x="727" d="M121 788v82q0 78 54 133t165 117q88 49 110.5 68t22.5 47q0 44 -31 75t-75 31t-75.5 -31t-31.5 -75h-123q0 94 68 161.5t162 67.5t161.5 -67.5t67.5 -161.5q0 -73 -40 -112t-168 -113q-15 -8 -23 -13q-85 -50 -107 -86h338v-123h-475z" />
<glyph unicode="&#xb3;" horiz-adv-x="673" d="M104 979h123q0 -35 31 -57.5t76 -22.5t75.5 22.5t30.5 57.5t-30.5 57.5t-75.5 22.5h-21v123h21q44 0 75 23.5t31 56.5q0 35 -30.5 57t-75.5 22t-76 -22t-31 -57h-123q0 85 67.5 143.5t162.5 58.5t162 -58.5t67 -143.5q0 -83 -65 -142q65 -62 65 -141q0 -86 -67 -144.5 t-162 -58.5t-162.5 59t-67.5 144z" />
<glyph unicode="&#xb4;" horiz-adv-x="770" d="M131 1294l438 226l78 -166l-454 -189z" />
<glyph unicode="&#xb5;" horiz-adv-x="1167" d="M137 -430v1454h205v-598q0 -98 72 -170t170 -72t169.5 72t71.5 170v598h205v-1024h-205v125q-55 -68 -134 -106.5t-169 -38.5q-100 0 -180 45v-455h-205z" />
<glyph unicode="&#xb6;" horiz-adv-x="1400" d="M74 956q0 135 66.5 249.5t181 181.5t249.5 67h670v-1454h-205v1249h-123v-1249h-204v461h-138q-205 0 -351 145.5t-146 349.5zM279 956q0 -122 84.5 -206t207.5 -84h138v583h-138q-123 0 -207.5 -85t-84.5 -208z" />
<glyph unicode="&#xb7;" horiz-adv-x="462" d="M129 625v204h205v-204h-205z" />
<glyph unicode="&#xb8;" horiz-adv-x="1126" d="M430 -10h123v-82h102v-41q0 -94 -65.5 -159.5t-159.5 -65.5v122q32 0 57 16.5t37 45.5h-94v82v82z" />
<glyph unicode="&#xb9;" horiz-adv-x="458" d="M66 1327l127 127h122v-668h-122v496l-41 -41z" />
<glyph unicode="&#xba;" horiz-adv-x="741" d="M90 1120q0 147 77 245.5t204 98.5t203.5 -98.5t76.5 -245.5t-76.5 -245.5t-203.5 -98.5t-204 98.5t-77 245.5zM213 1120q0 -98 40 -159.5t118 -61.5t117.5 61.5t39.5 159.5t-39.5 159.5t-117.5 61.5t-118 -61.5t-40 -159.5z" />
<glyph unicode="&#xbb;" horiz-adv-x="1163" d="M100 164l357 356l-357 357l117 114l471 -471l-471 -471zM510 164l356 356l-356 357l117 114l471 -471l-471 -471z" />
<glyph unicode="&#xbc;" horiz-adv-x="1624" d="M70 90l1364 1364l88 -88l-1364 -1364zM168 1327l127 127h123v-668h-123v496l-41 -41zM965 129v123l307 416h123v-416h114v-123h-114v-129h-123v129h-307zM1108 252h164v221z" />
<glyph unicode="&#xbd;" horiz-adv-x="1622" d="M70 90l1364 1364l88 -88l-1364 -1364zM168 1327l127 127h123v-668h-123v496l-41 -41zM1004 0v82q0 78 54 133t165 117q89 50 111 68t22 46q0 44 -31.5 75.5t-75.5 31.5t-75 -31.5t-31 -75.5h-123q0 94 67.5 162t161.5 68t162 -68t68 -162q0 -72 -38.5 -109.5 t-164.5 -110.5q-19 -11 -29 -17q-84 -50 -106 -86h338v-123h-475z" />
<glyph unicode="&#xbe;" horiz-adv-x="1636" d="M94 90l1364 1364l88 -88l-1364 -1364zM125 979h123q0 -35 30.5 -57.5t75.5 -22.5t76 22.5t31 57.5t-31 57.5t-76 22.5h-20v123h20q44 0 75.5 24t31.5 56q0 35 -31 57t-76 22t-75.5 -22t-30.5 -57h-123q0 85 67 143.5t162 58.5t162.5 -58.5t67.5 -143.5q0 -82 -66 -142 q66 -63 66 -141q0 -85 -67.5 -144t-162.5 -59t-162 58.5t-67 144.5zM989 129v123l307 416h123v-416h115v-123h-115v-129h-123v129h-307zM1133 252h163v221z" />
<glyph unicode="&#xbf;" horiz-adv-x="1273" d="M76 418q0 133 70.5 230t226.5 186q30 17 69.5 39t58 33t43 26t35 25t23 24t17 28.5t7.5 33t3 42.5h205q0 -96 -24 -153.5t-88 -111.5t-206 -136q-132 -75 -183.5 -132t-51.5 -134q0 -100 105 -173t253 -73t253 73t105 173h205q0 -121 -75 -225t-205 -165t-283 -61 t-283 61t-205 165t-75 225zM629 1249v205h205v-205h-205z" />
<glyph unicode="&#xc0;" horiz-adv-x="1404" d="M18 0l570 1454h229l569 -1454h-219l-151 385h-629l-149 -385h-220zM440 1784l78 166l438 -226l-61 -129zM467 590h469l-234 598z" />
<glyph unicode="&#xc1;" horiz-adv-x="1404" d="M18 0l570 1454h229l569 -1454h-219l-151 385h-629l-149 -385h-220zM444 1724l439 226l78 -166l-455 -189zM467 590h469l-234 598z" />
<glyph unicode="&#xc2;" horiz-adv-x="1404" d="M18 0l570 1454h229l569 -1454h-219l-151 385h-629l-149 -385h-220zM346 1724l356 226l357 -226l-62 -129l-295 150l-294 -150zM467 590h469l-234 598z" />
<glyph unicode="&#xc3;" horiz-adv-x="1404" d="M18 0l570 1454h229l569 -1454h-219l-151 385h-629l-149 -385h-220zM350 1724l82 82q68 68 155.5 73t137.5 -52q78 -92 129 -41l82 82l119 -119l-82 -82q-45 -45 -102 -62.5t-107.5 -5.5t-83.5 48q-78 92 -129 41l-82 -82zM467 590h469l-234 598z" />
<glyph unicode="&#xc4;" horiz-adv-x="1404" d="M18 0l570 1454h229l569 -1454h-219l-151 385h-629l-149 -385h-220zM426 1606v204h205v-204h-205zM467 590h469l-234 598zM774 1606v204h205v-204h-205z" />
<glyph unicode="&#xc5;" horiz-adv-x="1404" d="M18 0l570 1454h229l569 -1454h-219l-151 385h-629l-149 -385h-220zM467 590h469l-234 598zM498 1720q0 86 59 145.5t145 59.5t145.5 -59.5t59.5 -145.5t-59.5 -145t-145.5 -59t-145 59t-59 145zM641 1720q0 -26 17.5 -43.5t43.5 -17.5t44 17.5t18 43.5t-18 44t-44 18 t-43.5 -18t-17.5 -44z" />
<glyph unicode="&#xc7;" horiz-adv-x="1431" d="M88 727q0 155 60 295.5t162 242.5t242.5 162t295.5 60q303 0 528 -215l-143 -146q-77 74 -176 115t-209 41q-113 0 -216 -44t-177 -118.5t-118 -177.5t-44 -215q0 -113 44 -216t118 -177t177 -118t216 -44q222 0 385 156l143 -146q-201 -192 -479 -213v-71h102v-41 q0 -94 -65.5 -160t-159.5 -66v123q32 0 57 16.5t37 45.5h-94v82v73q-190 16 -347.5 121.5t-248 273.5t-90.5 361z" />
<glyph unicode="&#xc8;" horiz-adv-x="1339" d="M184 0v1454h1045v-205h-840v-420h778v-204h-778v-420h840v-205h-1045zM444 1784l78 166l439 -226l-62 -129z" />
<glyph unicode="&#xc9;" horiz-adv-x="1339" d="M184 0v1454h1045v-205h-840v-420h778v-204h-778v-420h840v-205h-1045zM449 1724l438 226l78 -166l-455 -189z" />
<glyph unicode="&#xca;" horiz-adv-x="1339" d="M184 0v1454h1045v-205h-840v-420h778v-204h-778v-420h840v-205h-1045zM350 1724l357 226l356 -226l-62 -129l-294 150l-295 -150z" />
<glyph unicode="&#xcb;" horiz-adv-x="1339" d="M184 0v1454h1045v-205h-840v-420h778v-204h-778v-420h840v-205h-1045zM430 1606v204h205v-204h-205zM778 1606v204h205v-204h-205z" />
<glyph unicode="&#xcc;" horiz-adv-x="573" d="M25 1784l77 166l439 -226l-62 -129zM184 0v1454h205v-1454h-205z" />
<glyph unicode="&#xcd;" horiz-adv-x="573" d="M29 1724l438 226l78 -166l-455 -189zM184 0v1454h205v-1454h-205z" />
<glyph unicode="&#xce;" horiz-adv-x="573" d="M-70 1724l357 226l356 -226l-61 -129l-295 150l-295 -150zM184 0v1454h205v-1454h-205z" />
<glyph unicode="&#xcf;" horiz-adv-x="573" d="M10 1606v204h205v-204h-205zM184 0v1454h205v-1454h-205zM358 1606v204h205v-204h-205z" />
<glyph unicode="&#xd0;" horiz-adv-x="1638" d="M12 625v204h246v625h563q197 0 364.5 -97.5t265 -265t97.5 -364.5t-97.5 -364.5t-265 -265t-364.5 -97.5h-563v625h-246zM463 205h358q106 0 203 41t167 111t111 167t41 203t-41 203t-111 167t-167 111t-203 41h-358v-420h246v-204h-246v-420z" />
<glyph unicode="&#xd1;" horiz-adv-x="1589" d="M184 0v1454h205l811 -1106v1106h205v-1454h-205l-811 1106v-1106h-205zM442 1683l82 82q68 68 155.5 73t137.5 -52q78 -92 129 -41l82 82l119 -119l-82 -82q-45 -45 -102 -62.5t-107.5 -5.5t-83.5 48q-78 92 -129 41l-82 -82z" />
<glyph unicode="&#xd2;" d="M88 727q0 155 60 295.5t162 242.5t242.5 162t295.5 60t295.5 -60t242.5 -162t162 -242.5t60 -295.5t-60 -295.5t-162 -242.5t-242.5 -162t-295.5 -60t-295.5 60t-242.5 162t-162 242.5t-60 295.5zM293 727q0 -113 44 -216t118 -177t177 -118t216 -44q112 0 215 44 t177.5 118t118.5 177t44 216q0 112 -44 215t-118.5 177.5t-177.5 118.5t-215 44q-113 0 -216 -44t-177 -118.5t-118 -177.5t-44 -215zM586 1784l78 166l438 -226l-62 -129z" />
<glyph unicode="&#xd3;" d="M88 727q0 155 60 295.5t162 242.5t242.5 162t295.5 60t295.5 -60t242.5 -162t162 -242.5t60 -295.5t-60 -295.5t-162 -242.5t-242.5 -162t-295.5 -60t-295.5 60t-242.5 162t-162 242.5t-60 295.5zM293 727q0 -113 44 -216t118 -177t177 -118t216 -44q112 0 215 44 t177.5 118t118.5 177t44 216q0 112 -44 215t-118.5 177.5t-177.5 118.5t-215 44q-113 0 -216 -44t-177 -118.5t-118 -177.5t-44 -215zM590 1724l438 226l78 -166l-455 -189z" />
<glyph unicode="&#xd4;" d="M88 727q0 155 60 295.5t162 242.5t242.5 162t295.5 60t295.5 -60t242.5 -162t162 -242.5t60 -295.5t-60 -295.5t-162 -242.5t-242.5 -162t-295.5 -60t-295.5 60t-242.5 162t-162 242.5t-60 295.5zM293 727q0 -113 44 -216t118 -177t177 -118t216 -44q112 0 215 44 t177.5 118t118.5 177t44 216q0 112 -44 215t-118.5 177.5t-177.5 118.5t-215 44q-113 0 -216 -44t-177 -118.5t-118 -177.5t-44 -215zM492 1724l356 226l356 -226l-61 -129l-295 150l-295 -150z" />
<glyph unicode="&#xd5;" d="M88 727q0 155 60 295.5t162 242.5t242.5 162t295.5 60t295.5 -60t242.5 -162t162 -242.5t60 -295.5t-60 -295.5t-162 -242.5t-242.5 -162t-295.5 -60t-295.5 60t-242.5 162t-162 242.5t-60 295.5zM293 727q0 -113 44 -216t118 -177t177 -118t216 -44q112 0 215 44 t177.5 118t118.5 177t44 216q0 112 -44 215t-118.5 177.5t-177.5 118.5t-215 44q-113 0 -216 -44t-177 -118.5t-118 -177.5t-44 -215zM496 1724l82 82q68 68 155 73t137 -52q78 -92 129 -41l82 82l119 -119l-82 -82q-45 -45 -102 -62.5t-107.5 -5.5t-83.5 48q-78 92 -129 41 l-82 -82z" />
<glyph unicode="&#xd6;" d="M88 727q0 155 60 295.5t162 242.5t242.5 162t295.5 60t295.5 -60t242.5 -162t162 -242.5t60 -295.5t-60 -295.5t-162 -242.5t-242.5 -162t-295.5 -60t-295.5 60t-242.5 162t-162 242.5t-60 295.5zM293 727q0 -113 44 -216t118 -177t177 -118t216 -44q112 0 215 44 t177.5 118t118.5 177t44 216q0 112 -44 215t-118.5 177.5t-177.5 118.5t-215 44q-113 0 -216 -44t-177 -118.5t-118 -177.5t-44 -215zM571 1606v204h205v-204h-205zM920 1606v204h204v-204h-204z" />
<glyph unicode="&#xd7;" horiz-adv-x="1036" d="M111 442l264 265l-264 264l143 143l264 -264l264 264l144 -143l-264 -264l264 -265l-144 -143l-264 264l-264 -264z" />
<glyph unicode="&#xd8;" d="M88 727q0 155 60 295.5t162 242.5t242.5 162t295.5 60q88 0 170 -21l49 133l193 -71l-50 -133q181 -100 289.5 -277.5t108.5 -390.5q0 -155 -60 -295.5t-162 -242.5t-242.5 -162t-295.5 -60q-69 0 -152 17l-47 -129l-192 71l45 123q-187 95 -300.5 277.5t-113.5 400.5z M293 727q0 -153 75.5 -281.5t202.5 -201.5l377 1028q-55 10 -100 10q-113 0 -216 -44t-177 -118.5t-118 -177.5t-44 -215zM768 178q40 -6 80 -6q112 0 215 44t177.5 118t118.5 177t44 216q0 147 -71.5 272.5t-192.5 198.5z" />
<glyph unicode="&#xd9;" horiz-adv-x="1550" d="M166 578v876h205v-876q0 -167 119 -286.5t286 -119.5t286.5 119.5t119.5 286.5v876h204v-876q0 -165 -82 -306t-222.5 -223t-305.5 -82t-305.5 82t-222.5 223t-82 306zM514 1784l78 166l438 -226l-61 -129z" />
<glyph unicode="&#xda;" horiz-adv-x="1550" d="M166 578v876h205v-876q0 -167 119 -286.5t286 -119.5t286.5 119.5t119.5 286.5v876h204v-876q0 -165 -82 -306t-222.5 -223t-305.5 -82t-305.5 82t-222.5 223t-82 306zM518 1724l438 226l78 -166l-454 -189z" />
<glyph unicode="&#xdb;" horiz-adv-x="1550" d="M166 578v876h205v-876q0 -167 119 -286.5t286 -119.5t286.5 119.5t119.5 286.5v876h204v-876q0 -165 -82 -306t-222.5 -223t-305.5 -82t-305.5 82t-222.5 223t-82 306zM420 1724l356 226l357 -226l-62 -129l-295 150l-295 -150z" />
<glyph unicode="&#xdc;" horiz-adv-x="1550" d="M166 578v876h205v-876q0 -167 119 -286.5t286 -119.5t286.5 119.5t119.5 286.5v876h204v-876q0 -165 -82 -306t-222.5 -223t-305.5 -82t-305.5 82t-222.5 223t-82 306zM500 1606v204h205v-204h-205zM848 1606v204h205v-204h-205z" />
<glyph unicode="&#xdd;" horiz-adv-x="1392" d="M12 1454h248l436 -647l437 647h247l-581 -858v-596h-205v596zM442 1724l439 226l77 -166l-454 -189z" />
<glyph unicode="&#xde;" horiz-adv-x="1388" d="M184 0v1454h205v-215h445q135 0 249.5 -67t181 -181.5t66.5 -249.5q0 -204 -146 -349.5t-351 -145.5h-445v-246h-205zM389 451h445q123 0 207.5 84t84.5 206q0 123 -84.5 208t-207.5 85h-445v-583z" />
<glyph unicode="&#xdf;" horiz-adv-x="1449" d="M143 0v1038q0 172 122 294t294 122h315q172 0 294 -122t122 -294q0 -157 -106 -276q88 -57 139 -148.5t51 -199.5q0 -172 -122 -293t-294 -121h-114q-172 0 -294 122t-122 294h205q0 -88 61.5 -149.5t149.5 -61.5h114q88 0 149.5 60.5t61.5 148.5t-61.5 149.5 t-149.5 61.5h-84v204q88 0 149.5 60.5t61.5 148.5t-61.5 149.5t-149.5 61.5h-315q-88 0 -149.5 -61.5t-61.5 -149.5v-1038h-205z" />
<glyph unicode="&#xe0;" horiz-adv-x="1079" d="M53 303q0 134 110 229t265 95h313v41q0 76 -70 124t-171 48q-96 0 -209 -33q-34 -11 -84 -31l-53 187q78 31 110 41q115 40 236 40q187 0 316.5 -106.5t129.5 -269.5v-668h-205v127q-52 -68 -134.5 -107.5t-178.5 -39.5q-155 0 -265 94.5t-110 228.5zM258 324 q0 -59 70.5 -99.5t171.5 -40.5t171 40t70 100v139h-241q-101 0 -171.5 -40t-70.5 -99zM258 1354l78 166l438 -226l-61 -129z" />
<glyph unicode="&#xe1;" horiz-adv-x="1079" d="M53 303q0 134 110 229t265 95h313v41q0 76 -70 124t-171 48q-96 0 -209 -33q-34 -11 -84 -31l-53 187q78 31 110 41q115 40 236 40q187 0 316.5 -106.5t129.5 -269.5v-668h-205v127q-52 -68 -134.5 -107.5t-178.5 -39.5q-155 0 -265 94.5t-110 228.5zM258 324 q0 -59 70.5 -99.5t171.5 -40.5t171 40t70 100v139h-241q-101 0 -171.5 -40t-70.5 -99zM291 1294l438 226l78 -166l-455 -189z" />
<glyph unicode="&#xe2;" horiz-adv-x="1079" d="M53 303q0 134 110 229t265 95h313v41q0 76 -70 124t-171 48q-96 0 -209 -33q-34 -11 -84 -31l-53 187q78 31 110 41q115 40 236 40q187 0 316.5 -106.5t129.5 -269.5v-668h-205v127q-52 -68 -134.5 -107.5t-178.5 -39.5q-155 0 -265 94.5t-110 228.5zM172 1294l356 226 l357 -226l-62 -129l-295 150l-295 -150zM258 324q0 -59 70.5 -99.5t171.5 -40.5t171 40t70 100v139h-241q-101 0 -171.5 -40t-70.5 -99z" />
<glyph unicode="&#xe3;" horiz-adv-x="1079" d="M53 303q0 134 110 229t265 95h313v41q0 76 -70 124t-171 48q-96 0 -209 -33q-34 -11 -84 -31l-53 187q78 31 110 41q115 40 236 40q187 0 316.5 -106.5t129.5 -269.5v-668h-205v127q-52 -68 -134.5 -107.5t-178.5 -39.5q-155 0 -265 94.5t-110 228.5zM168 1278l82 82 q68 68 155.5 72.5t137.5 -52.5q78 -92 129 -41l82 82l118 -118l-81 -82q-45 -45 -102 -62.5t-107.5 -6t-83.5 47.5q-78 92 -129 41l-82 -82zM258 324q0 -59 70.5 -99.5t171.5 -40.5t171 40t70 100v139h-241q-101 0 -171.5 -40t-70.5 -99z" />
<glyph unicode="&#xe4;" horiz-adv-x="1079" d="M53 303q0 134 110 229t265 95h313v41q0 76 -70 124t-171 48q-96 0 -209 -33q-34 -11 -84 -31l-53 187q78 31 110 41q115 40 236 40q187 0 316.5 -106.5t129.5 -269.5v-668h-205v127q-52 -68 -134.5 -107.5t-178.5 -39.5q-155 0 -265 94.5t-110 228.5zM244 1176v204h205 v-204h-205zM258 324q0 -59 70.5 -99.5t171.5 -40.5t171 40t70 100v139h-241q-101 0 -171.5 -40t-70.5 -99zM592 1176v204h205v-204h-205z" />
<glyph unicode="&#xe5;" horiz-adv-x="1079" d="M53 303q0 134 110 229t265 95h313v41q0 76 -70 124t-171 48q-96 0 -209 -33q-34 -11 -84 -31l-53 187q78 31 110 41q115 40 236 40q187 0 316.5 -106.5t129.5 -269.5v-668h-205v127q-52 -68 -134.5 -107.5t-178.5 -39.5q-155 0 -265 94.5t-110 228.5zM258 324 q0 -59 70.5 -99.5t171.5 -40.5t171 40t70 100v139h-241q-101 0 -171.5 -40t-70.5 -99zM315 1319q0 86 59.5 145.5t145.5 59.5t145.5 -59.5t59.5 -145.5t-59.5 -145.5t-145.5 -59.5t-145.5 59.5t-59.5 145.5zM459 1319q0 -26 17.5 -44t43.5 -18t44 18t18 44t-18 43.5 t-44 17.5t-43.5 -17.5t-17.5 -43.5z" />
<glyph unicode="&#xe7;" horiz-adv-x="1060" d="M76 512q0 146 67.5 268t187.5 193t267 71q123 0 231 -54.5t181 -149.5l-170 -115q-43 54 -106.5 84.5t-135.5 30.5q-137 0 -227 -95.5t-90 -232.5t90 -232.5t227 -95.5q72 0 135.5 30.5t106.5 84.5l170 -115q-67 -87 -159.5 -139.5t-201.5 -62.5v-74h103v-41 q0 -94 -66 -159.5t-160 -65.5v122q32 0 57.5 16.5t37.5 45.5h-95v160q-196 25 -323 174t-127 352z" />
<glyph unicode="&#xe8;" horiz-adv-x="1099" d="M76 512q0 145 64.5 267.5t175 193.5t241.5 71t241.5 -71t175 -193.5t64.5 -267.5v-82h-749q24 -107 97.5 -176.5t170.5 -69.5q72 0 135.5 30.5t106.5 84.5l170 -115q-73 -95 -181 -149.5t-231 -54.5q-131 0 -241.5 71t-175 193.5t-64.5 267.5zM289 594h534 q-25 108 -97.5 177t-168.5 69q-97 0 -170.5 -69.5t-97.5 -176.5zM295 1354l78 166l438 -226l-61 -129z" />
<glyph unicode="&#xe9;" horiz-adv-x="1099" d="M76 512q0 145 64.5 267.5t175 193.5t241.5 71t241.5 -71t175 -193.5t64.5 -267.5v-82h-749q24 -107 97.5 -176.5t170.5 -69.5q72 0 135.5 30.5t106.5 84.5l170 -115q-73 -95 -181 -149.5t-231 -54.5q-131 0 -241.5 71t-175 193.5t-64.5 267.5zM289 594h534 q-25 108 -97.5 177t-168.5 69q-97 0 -170.5 -69.5t-97.5 -176.5zM299 1294l438 226l78 -166l-455 -189z" />
<glyph unicode="&#xea;" horiz-adv-x="1099" d="M76 512q0 145 64.5 267.5t175 193.5t241.5 71t241.5 -71t175 -193.5t64.5 -267.5v-82h-749q24 -107 97.5 -176.5t170.5 -69.5q72 0 135.5 30.5t106.5 84.5l170 -115q-73 -95 -181 -149.5t-231 -54.5q-131 0 -241.5 71t-175 193.5t-64.5 267.5zM201 1294l356 226l356 -226 l-61 -129l-295 150l-295 -150zM289 594h534q-25 108 -97.5 177t-168.5 69q-97 0 -170.5 -69.5t-97.5 -176.5z" />
<glyph unicode="&#xeb;" horiz-adv-x="1099" d="M76 512q0 145 64.5 267.5t175 193.5t241.5 71t241.5 -71t175 -193.5t64.5 -267.5v-82h-749q24 -107 97.5 -176.5t170.5 -69.5q72 0 135.5 30.5t106.5 84.5l170 -115q-73 -95 -181 -149.5t-231 -54.5q-131 0 -241.5 71t-175 193.5t-64.5 267.5zM281 1176v204h204v-204 h-204zM289 594h534q-25 108 -97.5 177t-168.5 69q-97 0 -170.5 -69.5t-97.5 -176.5zM629 1176v204h205v-204h-205z" />
<glyph unicode="&#xec;" horiz-adv-x="491" d="M-16 1354l77 166l439 -226l-62 -129zM143 0v1024h205v-1024h-205z" />
<glyph unicode="&#xed;" horiz-adv-x="491" d="M-12 1294l438 226l78 -166l-455 -189zM143 0v1024h205v-1024h-205z" />
<glyph unicode="&#xee;" horiz-adv-x="491" d="M-111 1294l357 226l356 -226l-61 -129l-295 150l-295 -150zM143 0v1024h205v-1024h-205z" />
<glyph unicode="&#xef;" horiz-adv-x="491" d="M-31 1176v204h205v-204h-205zM143 0v1024h205v-1024h-205zM317 1176v204h205v-204h-205z" />
<glyph unicode="&#xf1;" horiz-adv-x="1169" d="M143 0v1024h205v-127q55 69 133.5 108t169.5 39q158 0 271.5 -113.5t113.5 -271.5v-659h-205v598q0 98 -71.5 170t-169.5 72q-99 0 -170.5 -68t-71.5 -164v-608h-205zM238 1278l81 82q68 68 155.5 72.5t137.5 -52.5q78 -92 129 -41l82 82l119 -118l-82 -82 q-45 -45 -102 -62.5t-107.5 -6t-83.5 47.5q-78 92 -129 41l-82 -82z" />
<glyph unicode="&#xf2;" horiz-adv-x="1196" d="M76 512q0 146 67.5 268t187.5 193t267 71t267 -71t187.5 -193t67.5 -268t-67.5 -268t-187.5 -193t-267 -71t-267 71t-187.5 193t-67.5 268zM281 512q0 -137 90 -232.5t227 -95.5t227 95.5t90 232.5t-90 232.5t-227 95.5t-227 -95.5t-90 -232.5zM336 1354l78 166l438 -226 l-61 -129z" />
<glyph unicode="&#xf3;" horiz-adv-x="1196" d="M76 512q0 146 67.5 268t187.5 193t267 71t267 -71t187.5 -193t67.5 -268t-67.5 -268t-187.5 -193t-267 -71t-267 71t-187.5 193t-67.5 268zM281 512q0 -137 90 -232.5t227 -95.5t227 95.5t90 232.5t-90 232.5t-227 95.5t-227 -95.5t-90 -232.5zM340 1294l438 226l78 -166 l-455 -189z" />
<glyph unicode="&#xf4;" horiz-adv-x="1196" d="M76 512q0 146 67.5 268t187.5 193t267 71t267 -71t187.5 -193t67.5 -268t-67.5 -268t-187.5 -193t-267 -71t-267 71t-187.5 193t-67.5 268zM242 1294l356 226l356 -226l-61 -129l-295 150l-295 -150zM281 512q0 -137 90 -232.5t227 -95.5t227 95.5t90 232.5t-90 232.5 t-227 95.5t-227 -95.5t-90 -232.5z" />
<glyph unicode="&#xf5;" horiz-adv-x="1196" d="M76 512q0 146 67.5 268t187.5 193t267 71t267 -71t187.5 -193t67.5 -268t-67.5 -268t-187.5 -193t-267 -71t-267 71t-187.5 193t-67.5 268zM246 1278l82 82q68 68 155.5 72.5t137.5 -52.5q78 -92 129 -41l81 82l119 -118l-82 -82q-45 -45 -102 -62.5t-107.5 -6 t-83.5 47.5q-78 92 -129 41l-81 -82zM281 512q0 -137 90 -232.5t227 -95.5t227 95.5t90 232.5t-90 232.5t-227 95.5t-227 -95.5t-90 -232.5z" />
<glyph unicode="&#xf6;" horiz-adv-x="1196" d="M76 512q0 146 67.5 268t187.5 193t267 71t267 -71t187.5 -193t67.5 -268t-67.5 -268t-187.5 -193t-267 -71t-267 71t-187.5 193t-67.5 268zM281 512q0 -137 90 -232.5t227 -95.5t227 95.5t90 232.5t-90 232.5t-227 95.5t-227 -95.5t-90 -232.5zM322 1176v204h204v-204 h-204zM670 1176v204h204v-204h-204z" />
<glyph unicode="&#xf7;" horiz-adv-x="1150" d="M121 563v205h909v-205h-909zM473 215v205h205v-205h-205zM473 911v205h205v-205h-205z" />
<glyph unicode="&#xf8;" horiz-adv-x="1198" d="M78 512q0 146 67.5 268t187.5 193t267 71q40 0 80 -6l29 76l192 -70l-29 -75q117 -73 183.5 -192t66.5 -265t-67.5 -268t-187.5 -193t-267 -71q-45 0 -86 8l-27 -78l-192 70l29 77q-114 70 -180 190t-66 265zM283 512q0 -158 112 -256l213 584h-8q-137 0 -227 -95.5 t-90 -232.5zM586 184h14q138 0 228 95.5t90 232.5q0 156 -117 258z" />
<glyph unicode="&#xf9;" horiz-adv-x="1169" d="M133 365v659h205v-598q0 -98 72 -170t170 -72t169.5 68t71.5 164v608h205v-1024h-205v125q-55 -68 -134 -106.5t-169 -38.5q-161 0 -273 112t-112 273zM317 1354l78 166l439 -226l-62 -129z" />
<glyph unicode="&#xfa;" horiz-adv-x="1169" d="M133 365v659h205v-598q0 -98 72 -170t170 -72t169.5 68t71.5 164v608h205v-1024h-205v125q-55 -68 -134 -106.5t-169 -38.5q-161 0 -273 112t-112 273zM322 1294l438 226l78 -166l-455 -189z" />
<glyph unicode="&#xfb;" horiz-adv-x="1169" d="M133 365v659h205v-598q0 -98 72 -170t170 -72t169.5 68t71.5 164v608h205v-1024h-205v125q-55 -68 -134 -106.5t-169 -38.5q-161 0 -273 112t-112 273zM223 1294l357 226l356 -226l-62 -129l-294 150l-295 -150z" />
<glyph unicode="&#xfc;" horiz-adv-x="1169" d="M133 365v659h205v-598q0 -98 72 -170t170 -72t169.5 68t71.5 164v608h205v-1024h-205v125q-55 -68 -134 -106.5t-169 -38.5q-161 0 -273 112t-112 273zM303 1176v204h205v-204h-205zM651 1176v204h205v-204h-205z" />
<glyph unicode="&#xfd;" horiz-adv-x="1064" d="M33 1024h221l278 -733l279 733h221l-432 -1137q-78 -200 -254 -278q-80 -36 -162 -39v205q44 0 84 18q87 33 127 137l27 70zM274 1294l439 226l78 -166l-455 -189z" />
<glyph unicode="&#xfe;" horiz-adv-x="1216" d="M143 -430v1884h205v-580q63 80 149.5 125t184.5 45q124 0 229 -71t166.5 -193.5t61.5 -267.5t-61.5 -267.5t-166.5 -193.5t-229 -71q-98 0 -185 44t-149 123v-577h-205zM348 512q0 -136 85.5 -232t207.5 -96t207.5 96t85.5 232t-85.5 232t-207.5 96t-207.5 -96 t-85.5 -232z" />
<glyph unicode="&#xff;" horiz-adv-x="1064" d="M33 1024h221l278 -733l279 733h221l-432 -1137q-78 -200 -254 -278q-80 -36 -162 -39v205q44 0 84 18q87 33 127 137l27 70zM256 1176v204h205v-204h-205zM604 1176v204h205v-204h-205z" />
<glyph unicode="&#x178;" horiz-adv-x="1392" d="M12 1454h248l436 -647l437 647h247l-581 -858v-596h-205v596zM420 1606v204h205v-204h-205zM768 1606v204h205v-204h-205z" />
<glyph unicode="&#x2c6;" horiz-adv-x="913" d="M100 1294l357 226l356 -226l-61 -129l-295 150l-295 -150z" />
<glyph unicode="&#x2dc;" horiz-adv-x="880" d="M88 1253l82 82q68 68 155.5 73t137.5 -52q78 -92 129 -41l82 82l119 -119l-82 -82q-45 -45 -102 -62.5t-107.5 -5.5t-83.5 48q-78 92 -129 41l-82 -82z" />
<glyph unicode="&#x2000;" horiz-adv-x="975" />
<glyph unicode="&#x2001;" horiz-adv-x="1950" />
<glyph unicode="&#x2002;" horiz-adv-x="975" />
<glyph unicode="&#x2003;" horiz-adv-x="1950" />
<glyph unicode="&#x2004;" horiz-adv-x="650" />
<glyph unicode="&#x2005;" horiz-adv-x="487" />
<glyph unicode="&#x2006;" horiz-adv-x="325" />
<glyph unicode="&#x2007;" horiz-adv-x="325" />
<glyph unicode="&#x2008;" horiz-adv-x="243" />
<glyph unicode="&#x2009;" horiz-adv-x="390" />
<glyph unicode="&#x200a;" horiz-adv-x="108" />
<glyph unicode="&#x2010;" horiz-adv-x="962" d="M129 471v205h705v-205h-705z" />
<glyph unicode="&#x2011;" horiz-adv-x="962" d="M129 471v205h705v-205h-705z" />
<glyph unicode="&#x2012;" horiz-adv-x="962" d="M129 471v205h705v-205h-705z" />
<glyph unicode="&#x2013;" horiz-adv-x="1134" d="M133 461v205h868v-205h-868z" />
<glyph unicode="&#x2014;" horiz-adv-x="1748" d="M133 461v205h1483v-205h-1483z" />
<glyph unicode="&#x2018;" horiz-adv-x="460" d="M125 1024v225q0 86 59.5 145.5t145.5 59.5v-102q-35 0 -58.5 -23.5t-23.5 -58.5v-41h82v-205h-205z" />
<glyph unicode="&#x2019;" horiz-adv-x="438" d="M133 1024v102q35 0 58.5 23.5t23.5 58.5v41h-82v205h205v-225q0 -86 -59.5 -145.5t-145.5 -59.5z" />
<glyph unicode="&#x201a;" horiz-adv-x="454" d="M129 -20v102q35 0 58.5 23.5t23.5 58.5v41h-82v205h205v-226q0 -86 -59.5 -145t-145.5 -59z" />
<glyph unicode="&#x201c;" horiz-adv-x="788" d="M125 1024v225q0 86 59.5 145.5t145.5 59.5v-102q-35 0 -58.5 -23.5t-23.5 -58.5v-41h82v-205h-205zM453 1024v205v20q0 86 59 145.5t145 59.5v-102q-35 0 -58.5 -23.5t-23.5 -58.5v-41h82v-205h-204z" />
<glyph unicode="&#x201d;" horiz-adv-x="768" d="M133 1024v102q35 0 58.5 23.5t23.5 58.5v41h-82v205h205v-225q0 -86 -59.5 -145.5t-145.5 -59.5zM461 1024v102q35 0 58.5 23.5t23.5 58.5v41h-82v205h205v-225q0 -86 -59.5 -145.5t-145.5 -59.5z" />
<glyph unicode="&#x201e;" horiz-adv-x="778" d="M129 -20v102q35 0 58.5 23.5t23.5 58.5v41h-82v205h205v-226q0 -86 -59.5 -145t-145.5 -59zM457 -20v102q35 0 58.5 23.5t23.5 58.5v41h-82v205h205v-226q0 -86 -59.5 -145t-145.5 -59z" />
<glyph unicode="&#x2022;" horiz-adv-x="626" d="M190 727q0 51 36 87t87 36t87 -36t36 -87t-36 -87t-87 -36t-87 36t-36 87z" />
<glyph unicode="&#x2026;" horiz-adv-x="1363" d="M129 0v205h205v-205h-205zM580 0v205h204v-205h-204zM1030 0v205h205v-205h-205z" />
<glyph unicode="&#x202f;" horiz-adv-x="390" />
<glyph unicode="&#x2039;" horiz-adv-x="755" d="M66 520l471 471l116 -114l-356 -357l356 -356l-116 -115z" />
<glyph unicode="&#x203a;" horiz-adv-x="755" d="M102 164l357 356l-357 357l117 114l471 -471l-471 -471z" />
<glyph unicode="&#x205f;" horiz-adv-x="487" />
<glyph unicode="&#x20ac;" horiz-adv-x="1421" d="M80 481v164h100q-4 18 -4 82t4 82h-100v164h131q67 226 242 372t389 146q142 0 268 -69t223 -187l-166 -125q-147 172 -325 172q-133 0 -243 -85t-169 -224h539v-164h-584q-4 -54 -4 -82t4 -82h584v-164h-539q60 -140 169.5 -224.5t242.5 -84.5q178 0 325 172l164 -125 q-97 -118 -222.5 -187t-266.5 -69q-214 0 -389.5 145.5t-241.5 372.5h-131z" />
<glyph unicode="&#x2122;" horiz-adv-x="1515" d="M84 1331v123h520v-123h-198v-520h-123v520h-199zM686 811v643h164l172 -475l172 475h164v-643h-123v418l-152 -418h-122l-152 418v-418h-123z" />
<glyph unicode="&#x25fc;" horiz-adv-x="1024" d="M0 0v1024h1024v-1024h-1024z" />
</font>
</defs>
</svg>
